<?xml version="1.0" encoding="UTF-8" standalone="no"?>
<!-- Created with Inkscape (http://www.inkscape.org/) -->

<svg
   xmlns:dc="http://purl.org/dc/elements/1.1/"
   xmlns:cc="http://creativecommons.org/ns#"
   xmlns:rdf="http://www.w3.org/1999/02/22-rdf-syntax-ns#"
   xmlns:svg="http://www.w3.org/2000/svg"
   xmlns="http://www.w3.org/2000/svg"
   xmlns:sodipodi="http://sodipodi.sourceforge.net/DTD/sodipodi-0.dtd"
   xmlns:inkscape="http://www.inkscape.org/namespaces/inkscape"
   width="156.91144mm"
   height="26.867697mm"
   viewBox="0 0 555.98542 95.200504"
   id="svg2"
   version="1.1"
   inkscape:version="0.91 r13725"
   sodipodi:docname="cool-ambience-by-aircraft.svg">
  <defs
     id="defs4" />
  <sodipodi:namedview
     id="base"
     pagecolor="#ffffff"
     bordercolor="#666666"
     borderopacity="1.0"
     inkscape:pageopacity="0.0"
     inkscape:pageshadow="2"
     inkscape:zoom="3.2314684"
     inkscape:cx="426.66218"
     inkscape:cy="82.663871"
     inkscape:document-units="px"
     inkscape:current-layer="layer1"
     showgrid="false"
     inkscape:window-width="4096"
     inkscape:window-height="2076"
     inkscape:window-x="0"
     inkscape:window-y="38"
     inkscape:window-maximized="1"
     showguides="true"
     inkscape:guide-bbox="true"
     fit-margin-top="0"
     fit-margin-left="0"
     fit-margin-right="0"
     fit-margin-bottom="0">
    <sodipodi:guide
       position="-2.2924468,37.487464"
       orientation="0,1"
       id="guide4231" />
  </sodipodi:namedview>
  <metadata
     id="metadata7">
    <rdf:RDF>
      <cc:Work
         rdf:about="">
        <dc:format>image/svg+xml</dc:format>
        <dc:type
           rdf:resource="http://purl.org/dc/dcmitype/StillImage" />
        <dc:title></dc:title>
      </cc:Work>
    </rdf:RDF>
  </metadata>
  <g
     inkscape:label="Layer 1"
     inkscape:groupmode="layer"
     id="layer1"
     transform="translate(-21.269106,-818.71975)">
    <path
       style="fill:#000000"
       d="m 559.31114,913.91921 c -0.34987,-0.0311 -0.69464,-0.16775 -0.96599,-0.38425 -0.0861,-0.0687 -0.24477,-0.23071 -0.30837,-0.31497 -0.1779,-0.23547 -0.29363,-0.51019 -0.34409,-0.81669 -0.0144,-0.0876 -0.0151,-0.41464 -0.0151,-8.27102 0,-7.85638 4.9e-4,-8.18341 0.0151,-8.271 0.0505,-0.30651 0.16619,-0.58122 0.34409,-0.81674 0.0635,-0.0843 0.22222,-0.24621 0.30837,-0.31493 0.24161,-0.19277 0.52811,-0.31771 0.84991,-0.37071 0.0876,-0.0144 0.41463,-0.0151 8.27099,-0.0151 7.85636,0 8.18339,4.9e-4 8.271,0.0151 0.3065,0.0505 0.5812,0.1662 0.81673,0.3441 0.0842,0.0636 0.24619,0.22222 0.31493,0.30837 0.19275,0.2416 0.31772,0.5281 0.3707,0.84991 0.0144,0.0876 0.0151,0.41462 0.0151,8.271 0,7.85638 -4.8e-4,8.18345 -0.0151,8.27102 -0.053,0.3218 -0.17795,0.6083 -0.3707,0.84993 -0.0687,0.0861 -0.23073,0.24477 -0.31493,0.30836 -0.22974,0.17354 -0.48613,0.28375 -0.79186,0.34056 l -0.0995,0.0181 -8.15906,0 c -4.48749,0 -8.17399,0 -8.19223,-0.005 z m 4.02148,-2.78043 c 0.82393,-0.0585 1.23167,-0.26689 1.46813,-0.75035 0.19987,-0.40864 0.28234,-0.97285 0.31031,-2.12271 0.008,-0.31936 0.0159,-1.39075 0.01,-1.38532 -0.001,0 -0.01,0.0802 -0.0186,0.17555 -0.0372,0.39299 -0.0871,0.61208 -0.18655,0.82005 -0.30845,0.64505 -1.0902,0.93377 -2.41374,0.89148 -0.44879,-0.0144 -0.73453,-0.0476 -0.99481,-0.11631 -0.41388,-0.10905 -0.6307,-0.28128 -0.70093,-0.55671 -0.0144,-0.0566 -0.0184,-0.10222 -0.0218,-0.25129 -0.0119,-0.53251 0.0704,-0.73309 0.3603,-0.87825 0.28649,-0.1434 0.81246,-0.22312 1.73116,-0.26225 0.57939,-0.0248 0.86265,-0.0263 4.9543,-0.0326 3.06539,-0.006 4.25466,-0.009 4.3117,-0.016 0.25324,-0.0305 0.43455,-0.0813 0.63517,-0.17907 0.69082,-0.33654 1.13108,-1.12624 1.33376,-2.39235 0.10574,-0.66061 0.14306,-1.38791 0.13459,-2.62425 -0.004,-0.66759 -0.01,-0.83736 -0.035,-1.16909 -0.10607,-1.38579 -0.49211,-2.24713 -1.19445,-2.6655 -0.27307,-0.1627 -0.58875,-0.25173 -0.97099,-0.27393 -0.18317,-0.011 -4.19454,-0.011 -4.59612,0 -0.5256,0.0139 -0.76938,0.0445 -1.02453,0.12826 -0.56644,0.18607 -0.87042,0.62717 -1.05685,1.53357 -0.11946,0.58085 -0.18889,1.38052 -0.22394,2.57939 -0.008,0.27346 -0.018,1.67952 -0.0113,1.58786 0.0327,-0.44793 0.10541,-0.83648 0.22403,-1.19819 0.28844,-0.87928 0.81151,-1.47971 1.53704,-1.7643 0.20929,-0.0821 0.4005,-0.12944 0.68407,-0.16925 0.14042,-0.0196 0.85674,-0.0228 1.66248,-0.008 0.58844,0.0113 1.06834,0.0175 2.60776,0.0326 0.40415,0.005 0.54943,0.0186 0.79903,0.0804 0.63983,0.15829 1.04159,0.55826 1.16126,1.15596 0.0319,0.15979 0.0377,0.23377 0.0368,0.47679 -0.001,0.33017 -0.0254,0.5397 -0.0868,0.75454 -0.1631,0.57128 -0.56475,0.91588 -1.22207,1.04833 -0.24955,0.0501 -0.25003,0.0501 -1.22303,0.0501 -0.49025,0 -2.08723,-0.006 -3.54886,-0.0113 -2.98331,-0.0129 -3.27517,-0.01 -3.8515,0.0284 -1.48538,0.10056 -2.32684,0.44602 -2.83724,1.16475 -0.45796,0.64484 -0.66077,1.65299 -0.63804,3.17159 0.009,0.60954 0.0372,0.98475 0.10078,1.34738 0.18694,1.06559 0.69751,1.60127 1.68295,1.76566 0.0978,0.0165 0.30888,0.0388 0.42288,0.0455 0.0992,0.006 0.55749,0 0.68822,-0.0113 z"
       id="path4147"
       inkscape:connector-curvature="0" />
    <path
       style="font-style:normal;font-weight:normal;font-size:51.67671967px;line-height:125%;font-family:sans-serif;letter-spacing:0px;word-spacing:0px;fill:#000000;fill-opacity:1;stroke:none;stroke-width:1px;stroke-linecap:butt;stroke-linejoin:miter;stroke-opacity:1"
       d="m 388.43405,894.63044 c -1.49631,2.77065 -2.59422,6.2 -3.6321,9.32557 -0.51353,3.07239 -0.0937,6.22346 -0.22941,9.32667 5.13218,1.87035 3.61393,-2.90973 4.67376,-5.11173 3.08161,0.3178 8.35947,-1.56066 6.82625,3.37197 -0.74007,3.56409 6.7218,2.09667 4.31592,-1.63219 0.7542,-5.40966 -1.76775,-10.49871 -3.75284,-15.26162 -2.72943,-0.061 -5.46917,-0.0222 -8.20158,-0.0187 z m 18.74664,3.34781 c 5.16801,-1.61311 3.85644,3.25336 3.92077,6.74391 1.5696,5.00522 -1.93488,4.93637 -3.92077,6.38609 -0.67278,4.20755 5.73856,1.33099 8.42989,2.17443 4.65805,2.02244 5.37085,-4.93382 0.48406,-3.29842 -1.30106,-2.25822 -0.19499,-6.92358 -0.56199,-10.11587 -0.51873,-2.65335 7.38858,-2.13439 2.73862,-5.24783 -3.69686,0 -7.39372,0 -11.09058,0 0,1.11923 0,2.23846 0,3.35769 z m 19.47108,15.30443 c 5.02908,1.53198 4.58972,-2.40446 4.31593,-6.17534 0.96046,-1.07824 4.0197,-0.5378 5.93057,-0.46539 2.95697,0.95823 0.3532,5.6458 2.0482,6.64073 4.79602,1.50859 3.82793,-2.74694 3.78357,-6.07874 0.25913,-3.36792 -3.8752,-3.43411 -6.20498,-3.65295 2.01877,-0.84185 4.99717,-1.62422 4.31703,-4.45534 0.61323,-2.81672 -1.94271,-4.93039 -4.61338,-4.47509 -2.96108,0.41856 -7.56976,-0.81047 -9.57694,0.56199 0,6.03338 0,12.06676 0,18.10013 z m 28.08319,-18.65663 c -3.11935,-0.31928 -6.26731,2.02948 -5.59469,5.40589 0.62072,3.9062 -1.37644,8.75517 1.34022,12.06089 3.46803,2.16312 7.84772,0.78957 11.68771,1.18985 1.39825,-4.42702 -2.85269,-3.20484 -5.78787,-3.29842 -2.91026,0.3209 -3.37812,-3.21345 -2.86705,-5.32795 -0.10034,-2.21181 -0.81327,-6.6702 2.64971,-6.67257 2.56295,-0.38921 7.39552,1.51761 6.00521,-2.81545 -1.01895,-1.23059 -5.44379,-0.22994 -7.43324,-0.54224 z m 14.41205,18.65663 c 5.02907,1.53198 4.58972,-2.40446 4.31594,-6.17534 0.96044,-1.07824 4.01969,-0.5378 5.93055,-0.46539 2.95697,0.95832 0.35319,5.64588 2.04821,6.64073 4.79586,1.5088 3.82623,-2.74791 3.78247,-6.07874 0.2619,-3.37012 -3.87523,-3.43194 -6.20387,-3.65295 2.01873,-0.84175 4.99702,-1.62433 4.31702,-4.45534 0.61323,-2.81672 -1.94271,-4.93039 -4.61339,-4.47509 -2.96108,0.41856 -7.56976,-0.81047 -9.57693,0.56199 0,6.03338 0,12.06676 0,18.10013 z m 26.40379,-18.65224 c -1.44665,2.33781 -2.17045,5.54799 -3.29841,8.19939 -1.11545,3.36213 -0.32676,6.9827 -0.56309,10.45285 5.13217,1.87035 3.61393,-2.90973 4.67376,-5.11173 3.08162,0.3178 8.35946,-1.56066 6.82624,3.37197 -0.74007,3.56409 6.7218,2.09667 4.31593,-1.63219 0.76839,-5.41808 -1.76126,-10.46299 -3.75175,-15.26162 -2.72983,-0.061 -5.46989,-0.0222 -8.20268,-0.0187 z m 19.21095,18.65224 c 4.68737,1.35823 4.79484,-1.86345 4.34446,-5.64298 0.59346,-2.92376 8.30536,1.27093 6.09961,-4.45204 -3.63727,0.22287 -7.5802,0.7514 -6.09961,-4.1436 0.49086,-2.88842 7.07526,0.3167 8.45186,-1.68597 1.23308,-4.76823 -5.05286,-2.01745 -7.8679,-2.73753 -4.75934,-1.24321 -5.67381,1.35842 -4.92842,5.61993 0,4.3474 0,8.6948 0,13.04219 z m 18.1572,-15.30443 c 4.35648,-0.8989 6.37813,0.53702 5.31479,5.05794 0,3.41549 0,6.831 0,10.24649 4.78157,1.39242 5.11972,-1.65857 4.54753,-5.61993 0.38324,-3.03226 -0.76451,-7.59551 0.562,-9.6845 3.94226,2.1269 7.4149,-3.47979 2.50482,-3.35769 -4.30971,0 -8.61943,0 -12.92914,0 0,1.11923 0,2.23846 0,3.35769 z m -100.82726,-0.37758 c 1.82383,-0.43964 4.76627,0.0643 4.57937,2.48835 0.56054,2.16243 -1.31971,4.12536 -3.52564,3.47624 -3.24663,1.7574 -2.83977,-6.29027 -1.05373,-5.96459 z m 42.49524,0 c 1.82418,-0.43973 4.76587,0.0644 4.57936,2.48835 0.56031,2.16237 -1.31957,4.12542 -3.52562,3.47624 -3.24664,1.7574 -2.83978,-6.29027 -1.05374,-5.96459 z m -82.57127,0.37758 c 3.4929,-0.3238 2.80602,4.69581 4.04915,6.77263 -1.02401,0.19935 -8.2825,1.69398 -7.03913,-1.07258 0.99803,-1.58376 0.52959,-5.45907 2.98998,-5.70005 z m 107.11675,0 c 3.49336,-0.32476 2.80564,4.69642 4.04915,6.77263 -1.024,0.19935 -8.28249,1.69398 -7.03914,-1.07258 0.99804,-1.58376 0.52961,-5.45907 2.98999,-5.70005 z"
       id="text4221"
       inkscape:connector-curvature="0" />
    <g
       style="font-style:normal;font-weight:normal;font-size:29.60171318px;line-height:125%;font-family:sans-serif;letter-spacing:0px;word-spacing:0px;fill:#000000;fill-opacity:1;stroke:none;stroke-width:1px;stroke-linecap:butt;stroke-linejoin:miter;stroke-opacity:1"
       id="text4225">
      <path
         d="m 52.642192,821.62904 q 5.58268,0 10.536325,2.12299 5.032274,2.04436 8.649221,5.73993 l -3.616947,3.85284 q -3.066542,-3.30243 -7.155265,-5.03228 -4.088723,-1.80847 -8.727851,-1.80847 -6.762119,0 -12.659315,3.45969 -5.897197,3.38106 -9.435515,9.19963 -3.459688,5.73993 -3.459688,12.58068 0,5.73994 2.673395,10.4577 2.752025,4.71775 7.548412,7.46978 4.796387,2.75203 10.693583,2.75203 4.639128,0 9.120998,-1.72985 4.481869,-1.80847 8.098816,-4.95364 l 2.987913,3.53831 q -4.481869,3.85284 -9.985919,6.05446 -5.425421,2.20162 -10.929471,2.20162 -7.312524,0 -13.209721,-3.38106 -5.818567,-3.38106 -9.199626,-9.19963 -3.302431,-5.81856 -3.302431,-12.8952 0,-8.17745 4.324611,-15.17545 4.324611,-6.99801 11.558506,-11.08673 7.233894,-4.16735 15.489969,-4.16735 z"
         style="font-style:italic;font-variant:normal;font-weight:300;font-stretch:normal;font-size:78.62928772px;line-height:125%;font-family:Montserrat;-inkscape-font-specification:'Montserrat Light Italic';text-align:start;letter-spacing:-3.05510449px;writing-mode:lr-tb;text-anchor:start"
         id="path4219"
         inkscape:connector-curvature="0" />
      <path
         d="m 95.737566,835.62505 q 5.582684,0 9.828664,2.43751 4.32461,2.35888 6.68349,6.60486 2.35888,4.24598 2.35888,9.75003 0,6.52623 -3.06655,11.71576 -2.98791,5.18954 -8.25607,8.17745 -5.268164,2.90928 -11.715766,2.90928 -5.582679,0 -9.828661,-2.35888 -4.245982,-2.4375 -6.60486,-6.68349 -2.358879,-4.24598 -2.358879,-9.75003 0,-6.52623 2.987913,-11.71576 3.066542,-5.18953 8.256075,-8.09882 5.268163,-2.98791 11.715764,-2.98791 z m -0.471776,4.63913 q -4.796386,0 -8.72785,2.35888 -3.931465,2.28024 -6.211714,6.36897 -2.20162,4.08872 -2.20162,9.19962 0,6.44761 3.774206,10.4577 3.852835,4.01009 10.143178,4.01009 4.796386,0 8.72785,-2.28025 3.93146,-2.28025 6.13309,-6.36897 2.28024,-4.08872 2.28024,-9.27825 0,-6.44761 -3.85283,-10.4577 -3.77421,-4.01009 -10.06455,-4.01009 z"
         style="font-style:italic;font-variant:normal;font-weight:300;font-stretch:normal;font-size:78.62928772px;line-height:125%;font-family:Montserrat;-inkscape-font-specification:'Montserrat Light Italic';text-align:start;letter-spacing:-3.05510449px;writing-mode:lr-tb;text-anchor:start"
         id="path4221"
         inkscape:connector-curvature="0" />
      <path
         d="m 141.51862,835.62505 q 5.58268,0 9.82866,2.43751 4.32461,2.35888 6.68349,6.60486 2.35888,4.24598 2.35888,9.75003 0,6.52623 -3.06655,11.71576 -2.98791,5.18954 -8.25607,8.17745 -5.26816,2.90928 -11.71576,2.90928 -5.58268,0 -9.82867,-2.35888 -4.24598,-2.4375 -6.60486,-6.68349 -2.35887,-4.24598 -2.35887,-9.75003 0,-6.52623 2.98791,-11.71576 3.06654,-5.18953 8.25607,-8.09882 5.26817,-2.98791 11.71577,-2.98791 z m -0.47178,4.63913 q -4.79638,0 -8.72785,2.35888 -3.93146,2.28024 -6.21171,6.36897 -2.20162,4.08872 -2.20162,9.19962 0,6.44761 3.7742,10.4577 3.85284,4.01009 10.14318,4.01009 4.79639,0 8.72785,-2.28025 3.93147,-2.28025 6.13309,-6.36897 2.28025,-4.08872 2.28025,-9.27825 0,-6.44761 -3.85284,-10.4577 -3.7742,-4.01009 -10.06455,-4.01009 z"
         style="font-style:italic;font-variant:normal;font-weight:300;font-stretch:normal;font-size:78.62928772px;line-height:125%;font-family:Montserrat;-inkscape-font-specification:'Montserrat Light Italic';text-align:start;letter-spacing:-3.05510449px;writing-mode:lr-tb;text-anchor:start"
         id="path4223"
         inkscape:connector-curvature="0" />
      <path
         d="m 181.717,818.71975 -11.63714,58.34293 -5.26816,0 11.63714,-58.34293 5.26816,0 z"
         style="font-style:italic;font-variant:normal;font-weight:300;font-stretch:normal;font-size:78.62928772px;line-height:125%;font-family:Montserrat;-inkscape-font-specification:'Montserrat Light Italic';text-align:start;letter-spacing:-3.05510449px;writing-mode:lr-tb;text-anchor:start"
         id="path4225"
         inkscape:connector-curvature="0" />
      <path
         d="m 243.45034,877.06268 -4.08872,-14.62504 -30.58679,0 -8.88511,14.62504 -5.73994,0 33.81059,-55.0405 5.66131,0 15.64723,55.0405 -5.81857,0 z m -31.76623,-19.50006 26.34081,0 -8.3347,-29.8005 -18.00611,29.8005 z"
         style="font-style:italic;font-variant:normal;font-weight:300;font-stretch:normal;font-size:78.62928772px;line-height:125%;font-family:Montserrat;-inkscape-font-specification:'Montserrat Light Italic';text-align:start;letter-spacing:-3.05510449px;writing-mode:lr-tb;text-anchor:start"
         id="path4227"
         inkscape:connector-curvature="0" />
      <path
         d="m 314.84857,835.54642 q 6.91938,0 10.69359,3.38106 3.7742,3.30243 3.7742,9.35688 0,1.96574 -0.47177,4.24599 l -4.95365,24.53233 -5.26816,0 4.71776,-23.98193 q 0.31451,-1.57259 0.31451,-3.30243 0,-4.48187 -2.75202,-6.91938 -2.75203,-2.51613 -7.70567,-2.51613 -6.21172,0.0786 -10.77222,3.85283 -4.48186,3.77421 -6.05445,10.14318 l -4.48187,22.72386 -5.34679,0 4.79638,-23.98193 q 0.31452,-1.57259 0.31452,-3.30243 0,-4.48187 -2.75202,-6.91938 -2.75203,-2.51613 -7.70567,-2.51613 -6.4476,0.0786 -11.08673,4.08872 -4.63913,4.01009 -5.97583,10.77221 l -4.32461,21.85894 -5.26816,0 8.09881,-41.20174 5.3468,0 -1.72985,8.64922 q 2.75203,-4.32461 6.91938,-6.60486 4.24598,-2.28025 9.59277,-2.35888 6.29035,0 9.98592,2.83065 3.69558,2.75203 4.32461,7.86293 6.21172,-10.53632 17.77022,-10.69358 z"
         style="font-style:italic;font-variant:normal;font-weight:300;font-stretch:normal;font-size:78.62928772px;line-height:125%;font-family:Montserrat;-inkscape-font-specification:'Montserrat Light Italic';text-align:start;letter-spacing:-3.05510449px;writing-mode:lr-tb;text-anchor:start"
         id="path4229"
         inkscape:connector-curvature="0" />
      <path
         d="m 363.72811,835.62505 q 5.18953,0 9.19963,2.35888 4.08872,2.28025 6.29034,6.4476 2.28025,4.16735 2.28025,9.51414 0,6.52623 -2.98792,11.95165 -2.98791,5.3468 -8.09881,8.49197 -5.11091,3.06654 -11.32262,3.06654 -6.21171,0 -10.53632,-3.06654 -4.24599,-3.14517 -5.66131,-8.5706 l -2.28025,11.24399 -5.26816,0 11.63713,-58.34293 5.26816,0 -5.1109,25.16137 q 2.98791,-3.93146 7.31252,-6.05445 4.32461,-2.20162 9.27826,-2.20162 z m -1.65122,4.48187 q -4.79638,0 -8.80648,2.51614 -3.93146,2.4375 -6.29034,6.68348 -2.28025,4.16736 -2.28025,9.19963 0,6.36897 3.85284,10.30044 3.85283,3.93146 10.06454,3.93146 4.79639,0 8.80648,-2.43751 4.0101,-2.51613 6.36898,-6.76211 2.35888,-4.24599 2.35888,-9.27826 0,-6.29034 -3.93147,-10.22181 -3.85283,-3.93146 -10.14318,-3.93146 z"
         style="font-style:italic;font-variant:normal;font-weight:300;font-stretch:normal;font-size:78.62928772px;line-height:125%;font-family:Montserrat;-inkscape-font-specification:'Montserrat Light Italic';text-align:start;letter-spacing:-3.05510449px;writing-mode:lr-tb;text-anchor:start"
         id="path4231"
         inkscape:connector-curvature="0" />
      <path
         d="m 398.93721,835.86094 -8.17745,41.20174 -5.26816,0 8.17744,-41.20174 5.26817,0 z m 0.39314,-15.64723 q 1.3367,0 2.12299,0.94355 0.86493,0.86492 0.86493,2.20162 0,1.80847 -1.3367,3.14517 -1.3367,1.25807 -3.14517,1.25807 -1.25807,0 -2.12299,-0.86492 -0.86493,-0.94355 -0.86493,-2.28025 0,-1.80848 1.3367,-3.06654 1.3367,-1.3367 3.14517,-1.3367 z"
         style="font-style:italic;font-variant:normal;font-weight:300;font-stretch:normal;font-size:78.62928772px;line-height:125%;font-family:Montserrat;-inkscape-font-specification:'Montserrat Light Italic';text-align:start;letter-spacing:-3.05510449px;writing-mode:lr-tb;text-anchor:start"
         id="path4233"
         inkscape:connector-curvature="0" />
      <path
         d="m 408.27975,858.27028 0,0.23589 q 0,6.52623 3.85283,10.4577 3.93147,3.93146 10.4577,3.93146 3.7742,0 7.15526,-1.25807 3.38106,-1.25807 5.97583,-3.61694 l 2.51614,3.45968 q -3.06655,2.83066 -7.15527,4.32461 -4.08872,1.49396 -8.72785,1.49396 -5.73994,0 -10.14318,-2.35888 -4.32461,-2.35888 -6.76212,-6.60486 -2.35888,-4.24598 -2.35888,-9.82866 0,-6.4476 2.98792,-11.63713 2.98791,-5.26817 8.17744,-8.25608 5.26817,-2.98791 11.55851,-2.98791 8.17745,0 12.8952,4.87501 4.79639,4.87502 4.79639,13.05247 0,1.96573 -0.39315,4.71775 l -34.83277,0 z m 17.53433,-18.16336 q -6.36897,0 -11.08673,3.85283 -4.63913,3.85284 -5.97583,10.14318 l 30.03639,0 q 0.0786,-6.52623 -3.38106,-10.22181 -3.38106,-3.7742 -9.59277,-3.7742 z"
         style="font-style:italic;font-variant:normal;font-weight:300;font-stretch:normal;font-size:78.62928772px;line-height:125%;font-family:Montserrat;-inkscape-font-specification:'Montserrat Light Italic';text-align:start;letter-spacing:-3.05510449px;writing-mode:lr-tb;text-anchor:start"
         id="path4235"
         inkscape:connector-curvature="0" />
      <path
         d="m 475.56712,835.54642 q 6.84075,0 10.61496,3.38106 3.85283,3.30243 3.85283,9.27825 0,2.04437 -0.47177,4.32462 l -4.87502,24.53233 -5.34679,0 4.79639,-23.98193 q 0.31451,-1.57259 0.31451,-3.30243 0,-4.48187 -2.75202,-6.91938 -2.6734,-2.51613 -7.70567,-2.51613 -6.36897,0.0786 -11.0081,4.08872 -4.63913,3.93146 -6.05446,10.77221 l -4.32461,21.85894 -5.26816,0 8.09882,-41.20174 5.34679,0 -1.72985,8.64922 q 2.75203,-4.32461 6.91938,-6.60486 4.24598,-2.28025 9.59277,-2.35888 z"
         style="font-style:italic;font-variant:normal;font-weight:300;font-stretch:normal;font-size:78.62928772px;line-height:125%;font-family:Montserrat;-inkscape-font-specification:'Montserrat Light Italic';text-align:start;letter-spacing:-3.05510449px;writing-mode:lr-tb;text-anchor:start"
         id="path4237"
         inkscape:connector-curvature="0" />
      <path
         d="m 514.12658,877.21994 q -5.42542,0 -9.59277,-2.35888 -4.16735,-2.35888 -6.52623,-6.60486 -2.28025,-4.24598 -2.28025,-9.75003 0,-6.52623 2.98791,-11.71576 2.98792,-5.26816 8.09882,-8.17745 5.18953,-2.98791 11.47988,-2.98791 4.71775,0 8.57059,1.57258 3.85283,1.57259 6.36897,4.40324 l -3.30243,3.61695 q -4.63913,-4.87501 -11.87302,-4.87501 -4.71776,0 -8.64922,2.28025 -3.93147,2.28024 -6.21172,6.36897 -2.20162,4.01009 -2.20162,9.12099 0,6.44761 3.77421,10.4577 3.85283,4.01009 10.06455,4.01009 4.08872,0 7.54841,-1.33669 3.45969,-1.41533 5.97582,-4.08873 l 2.75203,3.14517 q -3.14517,3.30243 -7.46978,5.11091 -4.32461,1.80847 -9.51415,1.80847 z"
         style="font-style:italic;font-variant:normal;font-weight:300;font-stretch:normal;font-size:78.62928772px;line-height:125%;font-family:Montserrat;-inkscape-font-specification:'Montserrat Light Italic';text-align:start;letter-spacing:-3.05510449px;writing-mode:lr-tb;text-anchor:start"
         id="path4239"
         inkscape:connector-curvature="0" />
      <path
         d="m 541.47643,858.27028 0,0.23589 q 0,6.52623 3.85284,10.4577 3.93146,3.93146 10.45769,3.93146 3.77421,0 7.15527,-1.25807 3.38106,-1.25807 5.97583,-3.61694 l 2.51613,3.45968 q -3.06654,2.83066 -7.15526,4.32461 -4.08873,1.49396 -8.72785,1.49396 -5.73994,0 -10.14318,-2.35888 -4.32461,-2.35888 -6.76212,-6.60486 -2.35888,-4.24598 -2.35888,-9.82866 0,-6.4476 2.98791,-11.63713 2.98792,-5.26817 8.17745,-8.25608 5.26816,-2.98791 11.5585,-2.98791 8.17745,0 12.89521,4.87501 4.79638,4.87502 4.79638,13.05247 0,1.96573 -0.39314,4.71775 l -34.83278,0 z m 17.53433,-18.16336 q -6.36897,0 -11.08672,3.85283 -4.63913,3.85284 -5.97583,10.14318 l 30.03639,0 q 0.0786,-6.52623 -3.38106,-10.22181 -3.38106,-3.7742 -9.59278,-3.7742 z"
         style="font-style:italic;font-variant:normal;font-weight:300;font-stretch:normal;font-size:78.62928772px;line-height:125%;font-family:Montserrat;-inkscape-font-specification:'Montserrat Light Italic';text-align:start;letter-spacing:-3.05510449px;writing-mode:lr-tb;text-anchor:start"
         id="path4241"
         inkscape:connector-curvature="0" />
    </g>
    <text
       xml:space="preserve"
       style="font-style:normal;font-weight:normal;font-size:37.25774002px;line-height:125%;font-family:sans-serif;letter-spacing:0px;word-spacing:0px;fill:#000000;fill-opacity:1;stroke:none;stroke-width:1px;stroke-linecap:butt;stroke-linejoin:miter;stroke-opacity:1"
       x="256.72415"
       y="728.10938"
       id="text4233"
       sodipodi:linespacing="125%"><tspan
         sodipodi:role="line"
         id="tspan4235"
         x="256.72415"
         y="728.10938" /></text>
    <g
       style="font-style:normal;font-weight:normal;font-size:19.26045036px;line-height:125%;font-family:sans-serif;letter-spacing:0px;word-spacing:0px;fill:#000000;fill-opacity:1;stroke:none;stroke-width:1px;stroke-linecap:butt;stroke-linejoin:miter;stroke-opacity:1"
       id="text4221-5">
      <path
         d="m 362.78968,902.73572 -4.16026,0 q -0.20584,0 -0.30335,-0.0867 -0.0867,-0.0975 -0.0867,-0.30336 l 0,-7.02043 q 0,-0.20585 0.0867,-0.29252 0.0975,-0.0975 0.30335,-0.0975 l 3.45605,0 q 1.06173,0 1.57093,0.41169 0.5092,0.40086 0.5092,1.24591 l 0,0.52003 q 0,0.45503 -0.16251,0.74755 -0.15168,0.28168 -0.4767,0.42252 0.69338,0.065 1.02923,0.4767 0.33586,0.41169 0.33586,1.20257 l 0,0.99673 q 0,0.91006 -0.52004,1.34342 -0.50919,0.43336 -1.58176,0.43336 z m -2.11263,-5.9587 0,1.17007 0.92089,0 q 0.20585,0 0.30335,-0.10834 0.10834,-0.10834 0.10834,-0.32502 l 0,-0.30335 q 0,-0.21668 -0.10834,-0.32502 -0.0975,-0.10834 -0.30335,-0.10834 l -0.92089,0 z m 0,2.8385 0,1.27842 1.40842,0 q 0.20585,0 0.30335,-0.10834 0.10834,-0.10834 0.10834,-0.32502 l 0,-0.42253 q 0,-0.21668 -0.10834,-0.31419 -0.0975,-0.10834 -0.30335,-0.10834 l -1.40842,0 z"
         style="font-style:normal;font-variant:normal;font-weight:normal;font-stretch:normal;font-size:10.83400345px;line-height:125%;font-family:Bungee;-inkscape-font-specification:'Bungee, Normal';text-align:start;letter-spacing:3.10999894px;writing-mode:lr-tb;text-anchor:start"
         id="path4244"
         inkscape:connector-curvature="0" />
      <path
         d="m 372.94263,902.73572 -1.75511,0 q -0.20585,0 -0.30335,-0.0867 -0.0867,-0.0975 -0.0867,-0.30336 l 0,-1.38675 -1.6576,-2.22097 q -0.24918,-0.33585 -0.33585,-0.58504 -0.0758,-0.24918 -0.0758,-0.74754 l 0,-2.08013 q 0,-0.20585 0.0867,-0.29252 0.0975,-0.0975 0.30335,-0.0975 l 1.66844,0 q 0.20585,0 0.29252,0.0975 0.0975,0.0867 0.0975,0.29252 l 0,1.77678 q 0,0.10834 0.0108,0.22751 0.0108,0.11917 0.0867,0.22751 l 0.49836,0.78005 q 0.0542,0.0975 0.10834,0.14084 0.065,0.0433 0.15168,0.0433 l 0.10834,0 q 0.0867,0 0.14084,-0.0433 0.065,-0.0433 0.11918,-0.14084 l 0.49836,-0.78005 q 0.0758,-0.10834 0.0867,-0.22751 0.0108,-0.11917 0.0108,-0.22751 l 0,-1.77678 q 0,-0.20585 0.0867,-0.29252 0.0975,-0.0975 0.30335,-0.0975 l 1.61427,0 q 0.20584,0 0.29252,0.0975 0.0975,0.0867 0.0975,0.29252 l 0,2.08013 q 0,0.49836 -0.0867,0.74754 -0.0867,0.24919 -0.32502,0.58504 l -1.64677,2.23181 0,1.37591 q 0,0.20585 -0.0975,0.30336 -0.0867,0.0867 -0.29251,0.0867 z"
         style="font-style:normal;font-variant:normal;font-weight:normal;font-stretch:normal;font-size:10.83400345px;line-height:125%;font-family:Bungee;-inkscape-font-specification:'Bungee, Normal';text-align:start;letter-spacing:3.10999894px;writing-mode:lr-tb;text-anchor:start"
         id="path4246"
         inkscape:connector-curvature="0" />
    </g>
  </g>
</svg>
