<?xml version="1.0" encoding="UTF-8" standalone="no"?>
<!-- Generator: Adobe Illustrator 18.0.0, SVG Export Plug-In . SVG Version: 6.00 Build 0)  -->

<svg
   xmlns:dc="http://purl.org/dc/elements/1.1/"
   xmlns:cc="http://creativecommons.org/ns#"
   xmlns:rdf="http://www.w3.org/1999/02/22-rdf-syntax-ns#"
   xmlns:svg="http://www.w3.org/2000/svg"
   xmlns="http://www.w3.org/2000/svg"
   xmlns:sodipodi="http://sodipodi.sourceforge.net/DTD/sodipodi-0.dtd"
   xmlns:inkscape="http://www.inkscape.org/namespaces/inkscape"
   version="1.1"
   id="Слой_1"
   x="0px"
   y="0px"
   viewBox="0 93 508.59668 379.49832"
   enable-background="new 0 93 850 1046"
   xml:space="preserve"
   inkscape:version="0.91 r13725"
   sodipodi:docname="california.svg"
   width="508.59668"
   height="379.49832"><metadata
     id="metadata9"><rdf:RDF><cc:Work
         rdf:about=""><dc:format>image/svg+xml</dc:format><dc:type
           rdf:resource="http://purl.org/dc/dcmitype/StillImage" /><dc:title /></cc:Work></rdf:RDF></metadata><defs
     id="defs7" /><sodipodi:namedview
     pagecolor="#ffffff"
     bordercolor="#666666"
     borderopacity="1"
     objecttolerance="10"
     gridtolerance="10"
     guidetolerance="10"
     inkscape:pageopacity="0"
     inkscape:pageshadow="2"
     inkscape:window-width="1920"
     inkscape:window-height="1007"
     id="namedview5"
     showgrid="false"
     inkscape:zoom="1.8049713"
     inkscape:cx="258.42578"
     inkscape:cy="154.61626"
     inkscape:window-x="0"
     inkscape:window-y="27"
     inkscape:window-maximized="1"
     inkscape:current-layer="Слой_1"
     fit-margin-top="0"
     fit-margin-left="0"
     fit-margin-right="0"
     fit-margin-bottom="0" /><path
     d="m 119.74337,93 118.77344,9.6113 -5.06442,112.63699 167.08867,158.54941 c 0,0 0,6.13644 1.3308,7.726 1.3308,1.58956 4.54688,3.73362 5.32318,5.32318 0.81327,1.58956 0,5.87768 1.3308,7.46724 1.33079,1.58956 8.65016,5.32318 8.65016,5.32318 0,0 -2.51372,3.47485 -3.84452,4.80565 -1.33079,1.33079 -6.39521,3.99238 -7.46723,6.3952 -1.07204,2.40283 -1.3308,8.53927 -0.81327,10.9421 0.51753,2.40282 1.07203,6.13644 0,7.20846 -1.07203,1.07204 -3.21609,3.73363 -4.28811,4.54689 -1.07204,0.81326 -2.14406,0.81326 -1.8853,2.14406 0.25877,1.33079 2.6616,2.92035 2.6616,4.80565 0,1.88529 -1.58957,4.54687 -1.58957,6.9497 0,2.40282 1.3308,3.73362 3.73362,3.99239 2.40282,0.25876 5.87768,-0.51753 5.32318,1.88528 -0.51753,2.40283 -2.66159,8.02174 -4.54688,9.0568 -1.88529,1.07203 -4.28812,0 -4.28812,0 l -81.28938,10.12883 c 0,0 -1.07203,-6.35824 -2.40282,-8.24354 -1.33079,-1.88529 -2.14406,-3.47485 -1.8853,-5.32317 0.25877,-1.88529 -2.92035,-10.68333 -4.54688,-13.86245 -1.62652,-3.17912 -10.12882,-9.35253 -11.75535,-10.94209 -1.58956,-1.58956 -20.29462,-10.68332 -20.29462,-10.68332 0,0 -0.25876,-3.99239 -1.07203,-5.87768 -0.81326,-1.88529 -2.66159,-6.39521 -5.06441,-6.39521 -2.40283,0 -4.80565,2.40283 -4.80565,2.40283 0,0 -5.32318,-2.14406 -6.94971,-2.66159 -1.62653,-0.51753 -7.20847,-1.58957 -8.02174,-2.92036 -0.81325,-1.3308 -5.6189,-9.05679 -10.68332,-10.12883 -5.06441,-1.07202 -7.46723,-1.33079 -9.35253,-1.07202 -1.88529,0.25876 -3.73361,-0.51754 -5.87767,-1.58957 -2.14406,-1.07203 -9.35254,-1.33079 -12.01413,-0.81326 -2.66158,0.51753 -2.66158,0.51753 -2.66158,0.51753 l -5.32318,-7.726 2.14406,-2.92035 -2.40282,-3.2161 2.40282,-2.92035 -2.92036,-3.21609 2.92036,-2.66159 -1.88529,-4.28811 c 0,0 1.07202,-1.07203 0.81326,-2.40282 -0.25877,-1.3308 -2.92036,-2.14406 -3.99239,-1.8853 -1.07203,0.25877 -3.73361,-2.66159 -3.99238,-4.54688 -0.25876,-1.88529 2.14405,-1.33079 2.40282,-2.40283 0.25876,-1.07202 -1.88529,-4.28811 -3.73362,-4.80564 -1.88529,-0.51754 -2.92035,0.51753 -5.06441,-3.47486 -2.14406,-3.99238 -0.25877,-5.06441 -2.66159,-5.32318 -2.40282,-0.25876 -2.66158,-0.51753 -3.99239,-3.47485 -1.33079,-2.92035 -3.47485,-2.66159 -4.54688,-5.87767 -1.07202,-3.21609 2.14406,-2.66159 0.81327,-3.99238 -1.3308,-1.3308 -5.61891,-5.61892 -7.20848,-6.94971 -1.58955,-1.33079 -5.61891,-5.87768 -5.61891,-5.87768 l -0.81325,-12.27289 c 0,0 1.88529,1.07203 3.47485,-1.07203 1.58955,-2.14405 1.58955,-2.14405 1.58955,-2.14405 0,0 2.14406,-0.81326 1.3308,-2.92036 -0.81327,-2.10709 -3.21608,-3.99238 -3.21608,-3.99238 0,0 0.81326,-0.81326 -0.25877,-2.14406 -1.07203,-1.33079 -5.87768,-0.81326 -5.87768,-0.81326 l -9.61129,-9.3895 c 0,0 -0.81327,0.037 0,-4.36205 0.81325,-4.39902 2.92035,-4.95351 1.88529,-6.54308 -1.03506,-1.58955 -3.47486,-4.28811 -3.99239,-6.9497 -0.51753,-2.66159 -0.51753,-5.32318 1.3308,-5.06441 1.88529,0.25876 3.99238,5.06441 6.13644,6.13644 2.14406,1.07203 1.58956,1.07203 4.28812,2.92035 2.66159,1.8853 -0.81327,-0.51753 -2.66159,-4.54688 -1.8853,-3.99238 -3.21609,-5.61891 -2.40283,-8.02174 0.81327,-2.40282 1.8853,-3.21608 2.40283,-4.54687 0.51753,-1.3308 -0.25877,-2.92036 -2.14406,-1.58957 -1.8853,1.3308 -1.8853,2.66159 -2.40283,4.54689 -0.51753,1.88529 -1.33079,3.73361 -2.66159,3.73361 -1.33079,0 -5.0644,-4.28811 -6.9497,-5.06441 -1.88529,-0.81326 -3.21609,-4.28811 -4.80565,-4.28811 -1.58955,0 -3.47485,-0.51753 -3.47485,-0.51753 l 2.92036,-5.06442 c 0,0 -1.8853,-3.47485 -2.92036,-4.54688 -1.07203,-1.07203 -2.40282,-1.8853 -2.66159,-4.28812 -0.25876,-2.40282 -0.25876,-3.73362 -0.25876,-3.73362 0,0 -5.32319,-1.33079 -6.69095,-4.54688 -1.36776,-3.21609 -1.33079,-4.80564 -3.47485,-7.20847 -2.14406,-2.40282 -4.54688,-2.92035 -5.61891,-5.87767 -1.07203,-2.92036 1.07203,-7.46724 0,-10.12883 -1.07203,-2.6616 -2.66159,-3.21609 -2.40282,-6.69094 0.25876,-3.47486 3.73361,-7.46724 3.21608,-9.87007 -0.51753,-2.40282 -5.61891,-12.82738 -5.87767,-13.60368 -0.25877,-0.77629 0,-4.28811 0,-4.28811 0,0 -10.35063,-7.3933 -10.35063,-9.2786 0,-1.88529 1.07204,-2.92035 1.58957,-4.28812 0.51753,-1.33079 -1.58957,-2.66159 -1.58957,-2.66159 0,0 3.73362,-10.68332 5.06442,-11.75535 1.33079,-1.07202 2.92035,0.81326 3.73361,-1.07202 0.81327,-1.8853 0.81327,-1.8853 0.81327,-1.8853 l -1.3308,-0.51753 c 0,0 2.66159,-5.06441 3.21609,-6.69094 0.5545,-1.62653 -2.40282,-3.73362 -1.58956,-5.87768 0.81326,-2.14406 3.73361,-5.06441 4.54688,-9.61129 0.81326,-4.54688 -1.88529,-11.75536 -3.21609,-12.82738 -1.33079,-1.07204 -0.81326,-3.733635 -0.81326,-3.733635 L 119.74337,93 Z"
     id="path3"
     style="fill:#ffffff;fill-opacity:0.18466899"
     inkscape:connector-curvature="0" /><flowRoot
     xml:space="preserve"
     id="flowRoot4752"
     style="font-style:normal;font-weight:normal;font-size:40px;line-height:125%;font-family:sans-serif;letter-spacing:0px;word-spacing:0px;fill:#000000;fill-opacity:1;stroke:none;stroke-width:1px;stroke-linecap:butt;stroke-linejoin:miter;stroke-opacity:1"
     transform="translate(-1.6646762,-513.77966)"><flowRegion
       id="flowRegion4754"><rect
         id="rect4756"
         width="181.72034"
         height="232.69067"
         x="527.43219"
         y="106.37288" /></flowRegion><flowPara
       id="flowPara4758" /></flowRoot><path
     id="path4773"
     d="m 267.99279,434.04244 17.02104,-52.44319 17.02103,52.44319 -44.62271,-32.43197 55.20335,0"
     inkscape:connector-curvature="0"
     style="fill:#7d8cff;fill-opacity:1" /><path
     style="fill:#ffffff"
     d="m 209.76272,383.33305 c -4.60102,0.12677 -11.10782,-3.40183 -14.37402,-7.79499 l -1.73731,-2.33674 -0.82227,-4.54041 c -0.89419,-4.93757 -0.93489,-6.78535 -0.33745,-15.32026 0.63397,-9.05653 2.76971,-22.91029 5.83117,-37.8245 1.05637,-5.1462 1.08225,-5.44795 0.3512,-4.09387 -5.52262,10.22907 -10.00483,16.85755 -13.02407,19.26052 -1.61948,1.28893 -2.03805,1.4722 -3.85958,1.68989 -3.99814,0.47782 -9.18456,-1.89976 -11.77623,-5.39851 -1.84408,-2.48951 -2.62929,-6.40233 -2.40198,-11.96951 0.0194,-0.47486 -0.81087,0.91567 -1.90551,3.19137 -4.2412,8.81721 -9.16657,16.37463 -12.11891,18.59506 -2.26402,1.70276 -4.46022,1.99922 -7.7554,1.04691 -7.36438,-2.12832 -10.60007,-7.56198 -9.89607,-16.61838 0.16715,-2.15017 0.27774,-2.29636 -2.32011,3.06703 -4.32667,8.93265 -9.06215,16.18977 -12.01194,18.40828 -2.26402,1.70276 -4.46022,1.99922 -7.75539,1.04691 -6.1314,-1.77198 -9.59168,-6.09328 -9.9493,-12.42496 -0.12943,-2.29176 -0.10189,-3.75335 0.11453,-6.07597 0.0348,-0.37391 -1.06347,1.55766 -2.44068,4.29237 -4.804795,9.54081 -9.216235,16.35866 -12.247585,18.92851 -5.34673,4.53274 -14.483893,0.3546 -18.032833,-8.24585 -1.035081,-2.50841 -1.841473,-6.59368 -1.933015,-9.79294 -0.03672,-1.28292 -0.142522,-2.38476 -0.235136,-2.4485 -0.09261,-0.0637 -0.888907,1.18482 -1.76955,2.77461 -2.417456,4.36409 -8.364685,13.08668 -11.149055,16.3519 -4.654517,5.45836 -9.375786,9.26625 -14.007306,11.29744 -3.032909,1.33011 -9.988661,2.33836 -13.28442,1.92561 -9.713935,-1.21653 -17.068742,-7.03953 -21.7291286,-17.20352 -9.930374,-21.65752 -5.579352,-57.58865 10.3274446,-85.28491 7.757984,-13.50789 18.03474,-23.41442 28.928065,-27.88593 4.030986,-1.65465 9.994837,-2.69229 13.270812,-2.30898 3.044693,0.35625 4.502723,0.85078 6.719135,2.27898 2.035749,1.31179 3.191435,2.52799 4.617294,4.85906 1.626772,2.65952 3.148589,9.8107 3.052184,14.34251 -0.146403,6.88202 -2.418691,13.93482 -6.708827,20.82303 -3.127267,5.02112 -10.149811,12.80074 -11.606585,12.85783 -0.541241,0.0212 -1.942289,-1.28815 -5.442991,-5.08682 -2.592774,-2.81348 -4.740977,-5.27327 -4.773779,-5.46622 -0.105535,-0.62081 0.251831,-1.07841 2.292627,-2.93561 6.063489,-5.51801 12.288563,-13.53144 14.685622,-18.90455 1.879583,-4.21316 2.439973,-7.19428 1.989401,-10.58308 -0.419823,-3.15754 -1.115575,-4.2459 -3.263592,-5.10523 -1.810301,-0.72422 -6.379674,0.42307 -9.80231,2.46119 -10.059557,5.99031 -19.998454,20.83287 -26.238066,39.18346 -6.788969,19.96624 -8.321406,42.44751 -3.968343,58.21666 1.372404,4.97156 2.361126,7.26273 4.279495,9.91681 1.776694,2.45806 5.427012,5.13161 7.989691,5.85176 1.762118,0.49519 2.359722,0.49388 5.095696,-0.0111 3.041453,-0.56142 3.151137,-0.6109 5.859609,-2.64257 3.984219,-2.98866 6.95572,-6.34273 11.597243,-13.09036 6.569577,-9.55052 12.929628,-21.54652 18.760028,-35.38416 4.519443,-10.72627 5.122463,-12.07099 7.25335,-16.17469 3.64933,-7.02794 8.31007,-13.04055 11.46794,-14.79433 4.67706,-2.59749 12.349665,0.0453 19.112715,6.58321 2.33142,2.25382 2.06485,2.48138 3.76649,-3.21513 0.61807,-2.06905 1.33971,-3.89399 1.60367,-4.05544 0.8249,-0.50455 11.72904,-2.3941 12.46348,-2.15976 1.23767,0.39491 1.09642,1.93255 -0.8446,9.19406 -7.8812,29.48407 -11.61196,49.96719 -10.36008,56.88021 0.39068,2.15744 1.06449,2.60601 2.18181,1.45254 2.75918,-2.84842 8.11286,-13.69783 14.62811,-29.64436 4.04929,-9.91091 4.73218,-11.92955 6.51249,-19.2514 5.11386,-21.03166 12.96378,-48.63949 22.14103,-77.869 2.02854,-6.46092 2.95291,-8.9284 3.46204,-9.24146 0.38201,-0.2349 3.04792,-0.85929 5.92424,-1.38752 5.58104,-1.02495 6.81189,-0.98718 7.22025,0.22156 0.13173,0.38989 -2.31509,9.4608 -5.90416,21.88806 -13.37413,46.30829 -20.84008,76.43019 -23.4728,94.70274 -1.63151,11.3235 -1.03538,17.26635 1.47233,14.67754 2.64403,-2.72956 7.60525,-12.6544 13.73919,-27.48503 4.50022,-10.88061 5.16604,-12.83973 9.71948,-28.59875 2.25276,-7.79657 4.27939,-14.4421 4.50362,-14.76787 0.33848,-0.49172 1.4185,-0.77886 6.36134,-1.69125 5.52288,-1.01948 6.00902,-1.06087 6.71904,-0.57213 0.42097,0.28978 0.79966,0.71242 0.84152,0.93921 0.0418,0.22679 -0.93425,4.20288 -2.16914,8.83577 -6.37661,23.92286 -10.18904,42.98169 -10.34797,51.7308 -0.0726,3.9945 0.13616,5.40642 0.90679,6.13432 0.54473,0.51451 0.60139,0.49296 1.75488,-0.66783 2.29239,-2.30688 6.66824,-10.21608 12.44848,-22.5002 l 3.35379,-7.12743 -1.72046,-2.3611 c -0.94626,-1.2986 -1.86176,-2.92509 -2.03445,-3.61441 -0.3091,-1.23381 -0.28276,-1.28117 1.69393,-3.04427 1.10437,-0.98503 2.2179,-1.84076 2.47453,-1.90161 0.25663,-0.0609 1.12931,0.33077 1.93929,0.87028 l 1.47269,0.98094 0.61997,-1.11666 c 0.6831,-1.23037 0.86382,-1.87479 5.63162,-20.08175 3.35752,-12.82146 15.62702,-55.83499 19.60794,-68.74008 1.32428,-4.29295 2.40271,-7.19955 2.75178,-7.4165 1.0162,-0.63163 11.13311,-2.38846 12.11127,-2.10315 1.6297,0.47535 1.53825,1.4145 -0.98897,10.15699 -6.50972,22.51925 -16.21032,58.94359 -22.00374,82.6208 -2.11172,8.63042 -2.20443,8.37099 1.78907,5.00665 3.78458,-3.18833 7.34922,-7.30877 11.84998,-13.6976 3.75509,-5.33036 4.37389,-6.41032 5.35323,-9.34268 1.55543,-4.65728 3.41944,-9.26457 5.26766,-13.02005 1.85891,-3.77722 2.03946,-3.86629 5.54084,-2.73357 l 2.38608,0.77191 1.76167,-1.72724 c 2.41526,-2.36806 4.69365,-3.63158 7.96185,-4.4154 5.94298,-1.42531 11.06023,0.68885 15.20355,6.28125 2.65522,3.58386 3.36994,5.32687 4.67797,11.40805 1.16715,5.42627 1.6645,10.04278 1.56053,14.48462 -0.0298,1.27314 0.0133,2.36131 0.0959,2.41814 0.52014,0.35804 4.61245,-9.64206 6.75684,-16.51122 1.31283,-4.20545 3.64996,-13.33562 3.55095,-13.87199 -0.0308,-0.16672 -1.14704,-0.83644 -2.4806,-1.48825 -2.66523,-1.30268 -5.455,-3.70966 -6.73628,-5.812 -2.31223,-3.79392 -1.31941,-12.26755 2.48697,-21.22604 1.71058,-4.026 2.47985,-4.91116 4.60985,-5.30434 2.82001,-0.52054 8.93607,0.28166 12.2474,1.6064 1.15604,0.46249 1.43305,0.74195 1.59184,1.60599 0.36691,1.98759 -0.75875,11.67887 -2.55562,22.03236 -0.42303,2.43738 -0.4187,2.87955 0.0289,2.96278 1.21995,0.22688 6.17274,-1.34304 9.26165,-2.93572 6.19402,-3.19371 7.1518,-3.35066 10.98576,-1.80033 3.84906,1.55643 7.22897,4.50012 7.62396,6.64002 0.25002,1.35438 -0.21778,4.11711 -3.39922,20.07557 -5.25486,26.35877 -6.63387,36.5634 -5.18592,38.37632 0.71952,0.90091 1.32834,0.56226 2.92836,-1.62886 2.88239,-3.94716 7.38968,-13.31506 12.92168,-26.85633 4.99303,-12.22191 5.66022,-14.32887 8.14575,-25.72398 2.74373,-12.57858 3.68867,-16.49775 4.06113,-16.84351 0.19633,-0.18227 3.00975,-0.82339 6.25202,-1.42469 5.468,-1.01407 5.95049,-1.05511 6.66043,-0.56642 0.42099,0.28977 0.80242,0.7273 0.84763,0.9723 0.0452,0.24499 -0.88027,4.88824 -2.05661,10.31833 -1.17639,5.43009 -2.1808,10.25646 -2.23208,10.72528 -0.0512,0.46882 0.78331,-1.11341 1.85458,-3.51604 4.18108,-9.3774 8.56961,-17.08756 11.98211,-21.05128 4.83516,-5.61619 7.76141,-6.55783 14.59339,-4.69606 5.12607,1.39692 8.96368,4.77218 9.64937,8.48688 0.4742,2.56899 -0.40739,9.84055 -3.77639,31.14819 -3.41105,21.57335 -3.93608,26.33147 -3.06397,27.76716 0.2585,0.42563 0.55352,0.75844 0.65557,0.7396 1.99383,-0.36803 7.32283,-9.55429 14.05919,-24.23541 5.03942,-10.98289 6.02492,-13.75657 10.76228,-30.29042 2.44582,-8.53606 4.66004,-16.04803 4.92055,-16.69328 l 0.47359,-1.17315 6.09294,-1.12469 c 5.49245,-1.01386 6.15638,-1.0762 6.73663,-0.63259 0.3541,0.27066 0.69603,0.77526 0.75989,1.12132 0.0639,0.34606 -0.89421,4.41974 -2.1291,9.05262 -7.47767,28.05372 -11.25233,48.7509 -10.0652,55.1901 0.65623,3.55513 1.11806,3.55644 3.71715,0.009 4.73143,-6.45721 16.57576,-31.15234 21.31497,-44.44099 6.56038,-18.39539 14.65932,-30.76816 20.89334,-31.9189 4.72798,-0.87274 11.17816,2.03067 16.82672,7.57416 l 2.06334,2.02498 1.32484,-4.57299 c 0.72867,-2.51514 1.54636,-4.70843 1.81697,-4.87397 0.83362,-0.50989 11.73482,-2.40359 12.47563,-2.1672 1.24384,0.39686 1.12471,1.96508 -0.65231,8.58848 -7.93593,29.57849 -11.80781,50.71586 -10.5441,57.56194 0.59374,3.21649 8.5424,2.02502 11.83304,-2.52674 1.52605,-4.11399 -4.53031,11.39259 -8.36806,13.5199 -3.00869,1.7658 -5.67936,2.13232 -8.85327,1.21507 -3.03776,-0.87791 -5.8176,-2.66501 -7.47535,-4.80575 -1.67766,-2.16635 -2.71279,-6.60348 -2.57124,-11.02106 l 0.0969,-3.02456 -0.57681,1.1087 c -0.31728,0.60979 -1.81729,3.51751 -3.33339,6.46161 -3.44819,6.69598 -8.75429,14.54167 -10.9679,16.2174 -1.3581,1.02806 -1.90084,1.24182 -3.73719,1.47191 -2.83952,0.35579 -5.06657,-0.28159 -7.9938,-2.28784 -2.6727,-1.83176 -4.74895,-4.45224 -6.07642,-7.66924 -0.93321,-2.26157 -1.89151,-6.94982 -1.9409,-9.49547 -0.0169,-0.86965 -0.11608,-1.56222 -0.22047,-1.53902 -0.10442,0.0232 -0.50288,0.73566 -0.88544,1.58325 -1.46417,3.24368 -5.89627,11.45725 -8.21072,15.2161 -2.65781,4.31639 -5.77096,8.14108 -7.89761,9.70268 -3.48123,2.55626 -9.98704,1.20876 -13.93569,-2.88635 -2.69502,-2.79502 -3.82538,-6.60107 -3.57066,-12.02269 0.0509,-1.08234 0,-1.82474 -0.11157,-1.64976 -0.11221,0.17496 -1.06357,1.98011 -2.11416,4.01144 -4.70538,9.09793 -9.30427,15.7032 -12.71742,18.26564 -1.589,1.19295 -2.08654,1.39988 -3.87819,1.61306 -4.04937,0.4818 -9.34205,-1.76341 -12.05778,-5.11509 -0.87414,-1.07886 -1.37276,-2.1066 -1.77627,-3.66108 -0.9305,-3.58479 -0.97179,-3.21622 4.58228,-40.90799 0.7654,-5.19415 1.46845,-10.85961 1.56235,-12.58991 0.15496,-2.85512 0.11131,-3.21773 -0.47218,-3.92172 -0.8297,-1.00108 -2.15775,-0.92053 -3.40148,0.20629 -1.46262,1.3251 -5.14371,7.10391 -7.25528,11.38975 -3.87686,7.86892 -8.56905,19.59444 -12.71071,31.76346 -2.13128,6.26206 -5.87713,19.30445 -6.52944,22.73435 -0.21734,1.14255 -0.49497,2.28372 -0.61708,2.53594 -0.16529,0.34149 -1.94602,0.77681 -6.97477,1.70507 l -6.75282,1.24649 -0.46119,-0.75928 c -0.37652,-0.61982 -0.2768,-1.91606 0.5429,-7.05738 0.55232,-3.46395 0.98271,-6.41447 0.95645,-6.55668 -0.0263,-0.14223 -0.94188,1.50966 -2.03479,3.67087 -4.21607,8.33731 -8.13575,13.94347 -11.56296,16.53801 -1.35539,1.02613 -1.87661,1.2256 -3.90734,1.49539 -3.26746,0.4341 -6.222,-0.42737 -9.32397,-2.71868 -4.06557,-3.00305 -5.44687,-6.43617 -5.12124,-12.72868 0.43502,-8.40672 3.4546,-25.57845 8.06502,-45.86422 0.77185,-3.39598 1.3801,-6.30037 1.35171,-6.45421 -0.0284,-0.15384 -1.05443,0.19223 -2.28009,0.76906 -2.36881,1.11482 -9.11981,2.66232 -10.91122,2.50111 -0.90155,-0.0811 -0.96759,0.006 -1.32607,1.74812 -0.75101,3.64994 -4.39583,15.69058 -5.95341,19.667 -3.207,8.18733 -7.1823,15.13014 -10.84405,18.93895 -1.55508,1.61756 -2.01248,2.34774 -2.24803,3.58867 -0.16262,0.85685 -0.82434,3.39673 -1.47051,5.64417 -3.29502,11.4607 -9.08635,20.4153 -15.72871,24.31985 -2.63118,1.54667 -7.5313,2.60165 -10.17137,2.18986 -5.92634,-0.92435 -11.60211,-5.55758 -14.83755,-12.11218 -3.25462,-6.59347 -5.06393,-18.54606 -4.30239,-28.42234 0.21539,-2.79334 0.45099,-2.84904 -2.37279,0.56095 -5.10541,6.16529 -10.21236,10.45972 -14.52345,12.21279 l -1.82475,0.74202 -0.75909,3.27383 -0.75909,3.27384 5.41073,5.50128 c 2.9759,3.0257 8.02153,8.13858 11.2125,11.36194 15.10479,15.25815 17.88327,19.81295 16.05024,26.31134 -2.74739,9.73994 -16.70309,27.27012 -30.00322,37.68796 -4.65887,3.64925 -7.36255,4.93617 -10.55515,5.02414 z m 6.03632,-11.40641 c 8.61499,-6.30186 21.88236,-22.59835 25.61037,-31.45756 1.23833,-2.94276 1.48536,-4.50079 0.9385,-5.9192 -0.70846,-1.83757 -4.21929,-6.31158 -8.29603,-10.57202 -2.93844,-3.07085 -17.04162,-16.79654 -18.04553,-17.56252 -0.29749,-0.22698 -0.5626,0.82391 -2.20727,8.74961 -4.90662,23.64505 -7.40965,42.12259 -6.91318,51.03347 0.26473,4.7516 1.31733,7.20617 3.38892,7.90272 1.3229,0.44481 2.66647,-0.084 5.52422,-2.1745 z m 48.90682,-65.95001 c 3.04487,-2.25545 6.77116,-8.08342 9.12294,-14.26838 0.92334,-2.42835 0.75785,-2.7824 -1.14138,-2.44171 -2.99064,0.53649 -8.71829,-0.74223 -11.92437,-2.66213 -2.26379,-1.35564 -5.19176,-4.07356 -6.58169,-6.10955 -0.52352,-0.76684 -0.99823,-1.32687 -1.05492,-1.24451 -0.23407,0.34006 -0.8449,9.0953 -0.83075,11.90726 0.0214,4.24612 1.1924,10.66924 2.30518,12.64447 1.03229,1.83226 2.9649,3.52761 4.43787,3.89302 1.51103,0.37483 3.76306,-0.30807 5.6671,-1.71846 z M 89.402425,334.97952 c 1.18372,-1.76606 3.66012,-6.01909 5.50311,-9.45119 4.07157,-7.58222 12.150395,-23.74374 13.504855,-27.01621 1.13806,-2.74959 4.09136,-12.92268 3.95927,-13.63825 -0.12635,-0.68446 -4.74817,-4.41943 -6.37812,-5.15428 -1.09489,-0.49362 -1.59341,-0.53315 -2.52457,-0.2002 -7.848355,2.80642 -19.531875,35.06565 -18.892995,52.16528 0.14638,3.91798 1.16602,6.78464 2.33637,6.5686 0.18693,-0.0345 1.30837,-1.5077 2.49208,-3.27375 z M 465.4419,265.62401 c 2.66777,-4.0025 7.81695,-13.57688 13.83072,-25.7169 5.15062,-10.3976 5.84501,-12.09502 7.99787,-19.55046 l 1.44595,-5.00738 -1.66832,-1.46602 c -2.42498,-2.13097 -5.24429,-3.94581 -6.22644,-4.00814 -3.23442,-0.20524 -7.39889,5.33036 -11.87015,15.7783 -5.8016,13.55637 -9.49891,31.96629 -8.02431,39.95486 0.27662,1.49856 1.41689,3.34367 1.99987,3.23605 0.23099,-0.0427 1.3627,-1.49178 2.51481,-3.22031 z m -188.73802,15.78391 c 0.43738,-0.78163 1.23767,-5.94535 1.54973,-9.9997 0.99203,-12.88783 -1.46549,-23.93639 -6.14235,-27.61487 -4.87562,-3.83484 -10.01878,1.0683 -11.46147,10.92659 -0.54574,3.72911 -0.3462,6.93958 0.7149,11.50325 2.01755,8.67704 5.94847,14.48058 10.62864,15.69189 1.9404,0.50222 4.28709,0.24955 4.71055,-0.50716 z m -85.31431,-39.00265 c -2.30222,-0.69688 -3.43105,-2.28449 -4.04928,-5.69498 -0.8152,-4.49727 0.34924,-9.27954 3.3205,-13.63683 4.08849,-5.99569 10.28515,-7.93006 13.23231,-4.13063 1.98683,2.5614 2.32192,7.40438 0.84445,12.20485 -1.01845,3.3091 -4.08661,7.83562 -6.45835,9.52819 -2.4598,1.7554 -4.8345,2.35149 -6.88963,1.7294 z m 243.46377,-44.66262 c -5.85195,-1.46519 -6.41599,-11.62869 -1.07787,-19.42307 2.62004,-3.82564 4.6139,-5.33502 7.83225,-5.92909 2.71838,-0.50179 3.79005,-0.14158 5.41556,1.82035 1.34656,1.62526 2.03519,5.17624 1.6299,8.40467 -0.8679,6.91378 -5.70322,13.54591 -10.86604,14.90386 -1.19412,0.31409 -2.25012,0.39443 -2.9338,0.22328 z"
     id="path3412"
     inkscape:connector-curvature="0"
     sodipodi:nodetypes="cscssssssscsssssssscsssscsssssssssssscssssssssssscssssssssssssssssscssssscsscsscsscssscscssscsssssssscssssscscssssscscsscscssscsccscsssssccssccsccsccssscsccssccscsccscssscccsssccssssssscsssccsccccscsssscsccsscssssssscccsssscccsssssssccssssssccccssssscscsssscsssscscssssscssssssscsssssc" /></svg>