<?xml version="1.0" standalone="no"?>
<!DOCTYPE svg PUBLIC "-//W3C//DTD SVG 20010904//EN"
 "http://www.w3.org/TR/2001/REC-SVG-20010904/DTD/svg10.dtd">
<svg version="1.0" xmlns="http://www.w3.org/2000/svg"
 width="1024.000000pt" height="1024.000000pt" viewBox="0 0 1024.000000 1024.000000"
 preserveAspectRatio="xMidYMid meet">
<metadata>
Created by potrace 1.11, written by Peter Selinger 2001-2013
</metadata>
<g transform="translate(0.000000,1024.000000) scale(0.100000,-0.100000)"
fill="#000000" stroke="none">
<path d="M2068 10235 c-2 -1 -70 -6 -153 -9 -82 -4 -159 -9 -170 -11 -11 -2
-49 -7 -85 -9 -79 -7 -204 -22 -285 -37 -33 -5 -69 -12 -80 -13 -48 -8 -244
-58 -285 -72 -282 -100 -435 -190 -590 -344 -90 -89 -174 -207 -233 -326 -36
-71 -110 -282 -120 -339 -3 -16 -12 -64 -20 -105 -34 -171 -42 -282 -42 -555
1 -297 17 -521 49 -665 3 -14 13 -59 22 -100 30 -139 100 -294 178 -395 57
-73 80 -97 156 -154 148 -111 341 -187 605 -235 117 -22 134 -25 195 -32 30
-3 63 -8 74 -10 10 -2 51 -6 90 -9 39 -3 89 -8 111 -10 22 -3 85 -7 140 -10
55 -3 134 -7 175 -10 244 -14 1311 -25 1304 -14 -2 4 -48 10 -101 14 -54 4
-107 9 -118 11 -11 1 -40 6 -65 9 -87 11 -256 57 -340 93 -263 111 -448 314
-568 622 -21 54 -67 211 -76 260 -21 110 -26 139 -30 165 -9 55 -21 158 -32
285 -7 84 -7 558 0 635 2 28 7 88 11 135 10 122 11 134 29 245 72 437 211 658
455 721 87 22 392 22 506 0 178 -35 279 -121 356 -306 49 -115 102 -364 123
-575 4 -33 9 -78 11 -100 8 -61 16 -177 30 -415 5 -82 14 -336 21 -555 6 -184
14 -2786 15 -4805 0 -927 5 -1637 10 -1680 51 -410 252 -731 617 -984 154
-107 427 -231 667 -304 151 -46 403 -105 545 -127 19 -3 60 -10 90 -15 30 -5
75 -12 99 -15 23 -3 55 -7 70 -9 14 -3 53 -7 86 -11 33 -3 71 -8 85 -10 14 -2
61 -7 105 -10 44 -3 103 -8 132 -11 56 -5 118 -9 373 -21 347 -17 1609 -8
1810 12 19 2 71 6 115 10 44 3 121 10 170 16 81 9 122 15 235 34 19 4 46 8 60
10 14 2 35 6 46 9 12 2 37 7 55 10 27 5 257 63 319 80 45 13 166 58 244 90
298 124 527 295 696 521 55 73 149 249 184 342 31 85 69 248 83 365 10 80 11
3602 1 3763 -4 66 -10 131 -12 145 -2 14 -7 52 -11 85 -7 62 -8 65 -26 155
-30 151 -107 327 -194 439 -62 81 -186 190 -271 237 -115 65 -257 126 -390
167 -94 30 -365 94 -434 103 -47 6 -107 16 -120 19 -20 6 -61 12 -140 21 -36
4 -67 8 -70 9 -3 1 -43 5 -90 9 -47 5 -92 10 -101 11 -8 2 -49 6 -90 10 -41 3
-94 8 -119 10 -138 13 -408 29 -668 40 -289 12 -342 14 -742 20 -593 10 -791
11 -796 3 -2 -4 13 -7 33 -6 21 0 94 -8 163 -16 937 -122 1594 -520 1900
-1149 111 -229 165 -434 196 -742 5 -52 4 -729 -1 -995 -3 -113 -7 -302 -9
-420 -3 -118 -7 -550 -10 -960 -5 -676 -11 -957 -20 -1007 -2 -10 -7 -45 -10
-78 -4 -33 -18 -109 -32 -170 -107 -466 -384 -769 -802 -875 -42 -10 -96 -22
-119 -25 -24 -3 -62 -8 -85 -11 -53 -8 -330 -7 -429 1 -503 40 -822 235 -1004
610 -36 76 -86 216 -100 282 -2 10 -10 52 -19 93 -8 41 -18 104 -21 140 -4 36
-9 76 -11 90 -6 32 -6 500 2 2070 9 1770 9 3543 0 3750 -15 369 -31 562 -66
810 -5 36 -12 88 -15 115 -4 28 -10 66 -15 85 -5 19 -12 52 -15 73 -19 119
-124 489 -146 511 -5 6 -9 16 -9 24 0 8 -29 74 -65 147 -274 567 -746 889
-1520 1039 -44 8 -98 18 -120 21 -23 3 -50 7 -60 9 -11 2 -45 7 -75 11 -30 3
-66 8 -80 10 -14 2 -56 6 -95 10 -38 3 -96 8 -128 11 -32 4 -84 8 -115 11 -63
4 -979 12 -984 8z"/>
<path d="M5886 6758 c3 -5 10 -6 15 -3 13 9 11 12 -6 12 -8 0 -12 -4 -9 -9z"/>
</g>
</svg>
