<?xml version="1.0" standalone="no"?>
<!DOCTYPE svg PUBLIC "-//W3C//DTD SVG 20010904//EN"
 "http://www.w3.org/TR/2001/REC-SVG-20010904/DTD/svg10.dtd">
<svg version="1.0" xmlns="http://www.w3.org/2000/svg"
 width="1024.000000pt" height="1024.000000pt" viewBox="0 0 1024.000000 1024.000000"
 preserveAspectRatio="xMidYMid meet">
<metadata>
Created by potrace 1.11, written by Peter Selinger 2001-2013
</metadata>
<g transform="translate(0.000000,1024.000000) scale(0.100000,-0.100000)"
fill="#000000" stroke="none">
<path d="M5069 10236 c-2 -2 -56 -7 -120 -10 -63 -4 -126 -8 -140 -11 -13 -2
-46 -6 -74 -10 -579 -71 -871 -362 -1040 -1035 -29 -117 -42 -179 -69 -335 -7
-39 -35 -230 -41 -275 -2 -19 -6 -57 -9 -85 -3 -27 -8 -72 -11 -100 -14 -126
-27 -285 -40 -500 -11 -163 -13 -202 -20 -380 -11 -270 -12 -306 -20 -760 -10
-570 -11 -786 -4 -791 3 -1 7 21 8 50 1 30 4 64 6 77 3 22 6 48 21 167 3 26 7
54 9 62 2 8 7 31 10 50 28 176 126 522 180 637 8 17 15 34 15 37 0 3 21 50 47
103 271 567 703 930 1266 1063 49 12 103 23 120 25 18 3 41 7 52 9 11 2 48 7
82 11 35 4 75 8 90 11 39 5 744 5 1008 -1 479 -11 658 -14 1385 -20 738 -5
916 -9 1009 -20 153 -19 267 -44 411 -91 56 -19 224 -99 265 -128 150 -104
275 -243 346 -386 33 -67 75 -174 83 -212 3 -13 12 -53 20 -89 45 -204 38
-578 -15 -820 -113 -521 -452 -804 -1071 -893 -71 -11 -244 -19 -393 -19 -82
0 -800 4 -1595 8 -2660 14 -3843 11 -4180 -10 -212 -13 -306 -21 -460 -41
-160 -21 -157 -20 -210 -29 -25 -4 -54 -8 -65 -10 -174 -26 -540 -124 -650
-175 -176 -80 -228 -106 -299 -149 -335 -203 -580 -505 -732 -905 -70 -182
-132 -417 -164 -621 -6 -38 -13 -81 -15 -95 -8 -47 -25 -195 -31 -260 -3 -36
-7 -78 -9 -95 -27 -204 -27 -1147 0 -1440 16 -174 23 -229 35 -300 5 -27 11
-66 14 -85 3 -19 12 -69 21 -110 9 -41 18 -84 20 -94 28 -133 112 -346 186
-474 75 -130 105 -169 199 -263 212 -210 494 -335 890 -394 174 -25 767 -26
906 -1 10 2 46 7 79 11 93 10 242 44 325 72 86 29 229 102 279 141 153 120
258 279 330 502 26 81 38 126 67 265 2 10 6 35 9 55 3 20 7 45 9 55 3 18 16
111 22 160 14 120 27 285 39 495 13 230 25 1361 14 1355 -3 -2 -6 -30 -8 -62
-1 -32 -6 -92 -11 -133 -5 -41 -12 -97 -16 -125 -12 -99 -66 -281 -109 -373
-73 -154 -157 -256 -295 -360 -74 -56 -88 -65 -185 -117 -96 -51 -360 -131
-495 -150 -24 -4 -47 -8 -50 -10 -3 -1 -36 -6 -75 -10 -38 -4 -83 -8 -100 -10
-134 -17 -537 -23 -735 -11 -140 9 -242 17 -270 22 -14 2 -45 6 -70 10 -67 8
-110 16 -260 49 -54 12 -187 63 -252 97 -157 84 -252 212 -274 368 -14 105 -9
329 11 460 17 113 86 222 182 287 63 42 193 97 253 108 18 3 37 8 41 11 7 4
108 26 184 39 53 9 238 32 320 40 39 4 90 8 115 11 25 2 88 6 140 9 52 3 126
8 164 10 75 4 329 14 556 21 80 3 1491 7 3135 9 2900 5 3317 7 3380 19 17 3
46 9 65 13 559 105 960 530 1183 1253 49 158 115 437 133 560 3 19 7 46 10 60
2 14 7 43 10 65 6 46 10 73 18 135 9 62 14 103 21 185 4 39 9 86 10 105 2 19
7 76 10 125 4 50 8 106 10 125 27 266 27 1744 0 2065 -9 107 -15 168 -20 209
-3 25 -7 67 -11 94 -5 44 -17 134 -30 212 -4 28 -38 201 -49 245 -57 253 -161
528 -267 710 -200 343 -509 583 -870 676 -90 23 -94 24 -153 33 -22 4 -56 10
-75 13 -34 7 -3664 15 -3671 9z"/>
</g>
</svg>
