<?xml version="1.0" standalone="no"?>
<!DOCTYPE svg PUBLIC "-//W3C//DTD SVG 20010904//EN"
 "http://www.w3.org/TR/2001/REC-SVG-20010904/DTD/svg10.dtd">
<svg version="1.0" xmlns="http://www.w3.org/2000/svg"
 width="1666.000000pt" height="1666.000000pt" viewBox="0 0 1666.000000 1666.000000"
 preserveAspectRatio="xMidYMid meet">
<metadata>
Created by potrace 1.11, written by Peter Selinger 2001-2013
</metadata>
<g transform="translate(0.000000,1666.000000) scale(0.100000,-0.100000)"
fill="#000000" stroke="none">
<path d="M8368 16655 c-1 -1 -75 -6 -163 -9 -88 -4 -182 -9 -210 -11 -117 -9
-182 -16 -205 -20 -14 -2 -50 -6 -80 -9 -30 -3 -66 -8 -80 -11 -63 -12 -77
-15 -110 -19 -50 -7 -253 -60 -330 -86 -104 -35 -288 -128 -385 -193 -129 -88
-301 -264 -397 -408 -123 -185 -232 -417 -313 -669 -35 -109 -118 -420 -130
-489 -3 -17 -12 -63 -20 -101 -17 -80 -17 -81 -49 -271 -13 -79 -27 -169 -31
-199 -3 -30 -8 -62 -10 -70 -2 -8 -7 -40 -10 -70 -3 -30 -8 -66 -10 -80 -2
-14 -6 -50 -10 -80 -3 -30 -8 -71 -10 -90 -3 -19 -7 -60 -10 -90 -3 -30 -8
-71 -10 -90 -2 -19 -7 -69 -10 -110 -3 -41 -8 -91 -10 -110 -2 -19 -7 -71 -10
-115 -3 -44 -8 -102 -10 -130 -2 -27 -7 -90 -10 -140 -3 -49 -8 -121 -10 -160
-5 -69 -11 -171 -20 -330 -2 -44 -7 -145 -10 -225 -3 -80 -8 -190 -10 -245 -4
-92 -12 -367 -20 -660 -12 -457 -23 -1755 -15 -1760 3 -2 6 4 6 13 1 36 15
233 18 249 2 10 7 50 11 88 4 39 9 79 11 90 2 11 6 45 9 75 4 30 8 62 10 70 2
8 7 30 10 48 43 260 94 484 161 706 48 159 120 364 160 455 14 31 30 69 37 85
20 49 154 318 187 376 68 118 203 321 270 404 144 180 324 366 450 466 24 19
58 47 75 61 73 62 261 186 371 246 97 52 244 123 254 123 6 0 18 4 28 10 91
52 470 163 662 195 36 6 92 15 124 21 10 2 44 6 75 9 31 3 65 8 76 10 97 20
872 25 1595 11 610 -12 772 -15 1110 -21 587 -9 1244 -16 1975 -20 396 -3 738
-6 760 -9 22 -2 78 -7 125 -11 256 -20 558 -86 784 -172 488 -185 827 -504
1009 -948 20 -50 58 -156 62 -175 1 -3 7 -25 14 -50 17 -57 41 -173 47 -225 3
-22 7 -45 9 -52 24 -74 25 -769 1 -889 -2 -11 -7 -45 -10 -75 -3 -30 -8 -63
-10 -74 -2 -11 -7 -40 -11 -65 -12 -71 -13 -77 -39 -179 -54 -207 -141 -409
-243 -565 -26 -39 -49 -73 -53 -76 -3 -3 -21 -25 -41 -50 -97 -120 -219 -230
-361 -325 -262 -175 -668 -310 -1053 -350 -33 -3 -73 -8 -90 -10 -157 -19
-272 -20 -1840 -11 -3534 21 -7277 27 -7615 13 -320 -13 -511 -23 -605 -32
-27 -2 -90 -7 -140 -10 -49 -3 -110 -8 -135 -11 -25 -2 -65 -6 -90 -9 -25 -2
-72 -7 -105 -11 -33 -3 -71 -7 -85 -9 -14 -2 -50 -6 -80 -10 -90 -10 -128 -15
-265 -37 -71 -11 -139 -21 -151 -23 -11 -2 -45 -8 -75 -14 -30 -6 -70 -13 -89
-16 -19 -3 -42 -8 -50 -10 -8 -2 -27 -6 -43 -9 -15 -3 -35 -7 -45 -10 -9 -3
-28 -7 -42 -10 -22 -5 -242 -60 -280 -70 -215 -60 -491 -164 -681 -257 -114
-56 -342 -191 -419 -248 -30 -23 -66 -49 -80 -59 -120 -85 -351 -312 -470
-462 -67 -83 -220 -312 -220 -328 0 -7 -3 -12 -7 -12 -5 0 -13 -10 -19 -23 -6
-12 -43 -85 -82 -162 -117 -233 -219 -515 -294 -810 -22 -88 -41 -167 -43
-175 -26 -124 -56 -274 -60 -305 -3 -22 -8 -50 -10 -61 -7 -33 -38 -252 -49
-354 -4 -30 -9 -71 -11 -90 -3 -19 -7 -64 -10 -100 -3 -36 -8 -79 -10 -96 -2
-16 -6 -82 -10 -145 -4 -63 -8 -130 -10 -148 -13 -115 -20 -453 -20 -921 0
-551 7 -807 30 -1100 2 -36 7 -101 10 -145 4 -44 8 -87 10 -95 2 -8 7 -48 10
-88 4 -41 8 -82 10 -91 2 -10 6 -42 10 -71 4 -29 8 -62 11 -73 2 -11 6 -41 9
-66 3 -25 7 -57 10 -71 3 -14 8 -41 11 -60 3 -19 12 -66 21 -105 8 -38 17 -81
19 -95 22 -118 120 -435 174 -565 168 -404 412 -718 730 -941 216 -151 511
-278 820 -352 25 -6 56 -14 70 -17 14 -4 41 -9 60 -11 19 -3 51 -9 70 -14 19
-5 59 -12 89 -15 30 -4 63 -8 74 -11 43 -8 141 -18 297 -30 191 -15 807 -9
1015 10 290 27 298 28 540 71 51 10 215 55 309 87 164 55 365 163 481 258 230
191 413 499 519 876 23 83 69 281 81 349 2 17 9 55 15 85 5 30 11 69 14 85 2
17 7 48 11 70 7 50 13 96 20 160 3 28 7 70 10 95 3 25 8 70 10 100 3 30 7 75
10 100 2 25 7 83 10 130 3 47 8 110 10 140 11 151 19 330 30 695 14 468 23
1770 12 1782 -4 3 -7 -9 -8 -28 0 -19 -2 -45 -4 -59 -2 -14 -6 -61 -9 -105
-13 -154 -25 -252 -62 -470 -9 -58 -63 -251 -89 -320 -15 -38 -31 -83 -37
-100 -32 -85 -156 -293 -228 -380 -56 -67 -195 -200 -262 -249 -35 -26 -70
-53 -78 -59 -58 -47 -270 -156 -406 -211 -162 -64 -466 -148 -619 -171 -22 -4
-53 -9 -70 -11 -112 -19 -284 -40 -395 -49 -359 -29 -1044 -24 -1375 9 -33 4
-82 9 -110 11 -81 8 -148 16 -175 20 -14 2 -56 9 -95 15 -477 73 -830 221
-1013 426 -110 122 -171 270 -188 455 -12 122 -3 585 11 609 1 3 6 32 10 65 3
32 9 63 11 67 3 5 8 20 10 35 8 42 61 159 93 206 113 162 310 277 622 361 52
14 105 27 119 30 14 3 61 12 104 21 89 17 100 19 211 35 44 7 87 13 95 15 8 2
44 6 80 10 36 4 72 8 80 10 8 2 49 6 90 9 41 4 93 9 115 11 43 5 133 12 235
20 36 2 97 7 135 10 39 3 115 7 170 10 55 3 141 7 190 10 347 18 810 30 1520
41 242 3 2517 8 5055 9 2538 2 4642 6 4675 9 230 24 357 47 520 97 419 129
771 373 1063 737 75 94 232 322 232 337 0 4 9 19 19 34 34 47 168 323 225 463
86 211 175 487 241 746 26 103 89 397 99 462 3 19 12 71 20 115 16 80 40 236
51 330 4 28 8 61 11 75 2 14 6 50 9 80 3 30 8 66 10 80 3 14 7 54 11 90 3 36
8 76 9 90 2 14 6 61 10 105 4 44 8 96 10 115 2 19 6 78 10 130 3 52 8 111 10
130 2 19 7 103 11 185 4 83 8 173 10 200 27 525 26 2300 -1 2775 -8 147 -16
268 -21 318 -2 28 -6 78 -9 110 -6 74 -15 158 -20 202 -3 19 -8 62 -11 95 -3
33 -8 67 -9 76 -2 9 -6 40 -10 70 -6 48 -40 272 -49 324 -2 11 -7 38 -11 60
-4 22 -9 47 -10 55 -8 42 -57 260 -65 290 -6 19 -26 91 -45 160 -217 789 -595
1366 -1120 1713 -206 136 -561 281 -785 321 -19 3 -46 8 -60 11 -14 3 -40 8
-59 11 -18 3 -42 7 -52 9 -10 2 -49 7 -86 11 -37 3 -79 9 -93 12 -26 6 -5745
13 -5752 7z"/>
<path d="M5646 5133 c-6 -14 -5 -15 5 -6 7 7 10 15 7 18 -3 3 -9 -2 -12 -12z"/>
</g>
</svg>
