<?xml version="1.0" encoding="UTF-8" standalone="no"?>
<!-- Created with Inkscape (http://www.inkscape.org/) -->

<svg
   xmlns:dc="http://purl.org/dc/elements/1.1/"
   xmlns:cc="http://creativecommons.org/ns#"
   xmlns:rdf="http://www.w3.org/1999/02/22-rdf-syntax-ns#"
   xmlns:svg="http://www.w3.org/2000/svg"
   xmlns="http://www.w3.org/2000/svg"
   xmlns:sodipodi="http://sodipodi.sourceforge.net/DTD/sodipodi-0.dtd"
   xmlns:inkscape="http://www.inkscape.org/namespaces/inkscape"
   width="150mm"
   height="150mm"
   viewBox="0 0 531.49607 531.49606"
   id="svg2"
   version="1.1"
   inkscape:version="0.91 r13725"
   sodipodi:docname="xj-music-platform.svg">
  <defs
     id="defs4" />
  <sodipodi:namedview
     id="base"
     pagecolor="#ffffff"
     bordercolor="#666666"
     borderopacity="1.0"
     inkscape:pageopacity="0.0"
     inkscape:pageshadow="2"
     inkscape:zoom="2.5294231"
     inkscape:cx="290.19805"
     inkscape:cy="324.51912"
     inkscape:document-units="px"
     inkscape:current-layer="layer1"
     showgrid="false"
     inkscape:window-width="4096"
     inkscape:window-height="2076"
     inkscape:window-x="0"
     inkscape:window-y="38"
     inkscape:window-maximized="1" />
  <metadata
     id="metadata7">
    <rdf:RDF>
      <cc:Work
         rdf:about="">
        <dc:format>image/svg+xml</dc:format>
        <dc:type
           rdf:resource="http://purl.org/dc/dcmitype/StillImage" />
        <dc:title></dc:title>
      </cc:Work>
    </rdf:RDF>
  </metadata>
  <g
     inkscape:label="Layer 1"
     inkscape:groupmode="layer"
     id="layer1"
     transform="translate(0,-520.86618)">
    <path
       style="fill:#000000"
       d="m 46.754,1049.5373 c -9.402525,-0.8224 -18.668627,-4.508 -25.960898,-10.3258 -2.315385,-1.8472 -6.578276,-6.2008 -8.28761,-8.4639 -4.7808313,-6.3297 -7.8911622,-13.7124 -9.2474426,-21.9498 -0.3876382,-2.3543 -0.4035935,-11.14329 -0.4035935,-222.2832 0,-211.13988 0.015896,-219.92888 0.4035935,-222.28321 1.3562804,-8.23741 4.4666113,-15.62009 9.2474426,-21.94977 1.709334,-2.26309 5.972225,-6.61666 8.28761,-8.4639 6.493121,-5.18025 14.192715,-8.53856 22.841133,-9.96251 2.354323,-0.38764 11.143323,-0.4036 222.283215,-0.4036 211.13991,0 219.92889,0.0159 222.28322,0.4036 8.23741,1.35628 15.62011,4.46661 21.94977,9.24744 2.26311,1.70933 6.61666,5.97223 8.4639,8.28761 5.18025,6.49312 8.53855,14.19272 9.96253,22.84113 0.38762,2.35433 0.40358,11.14333 0.40358,222.28321 0,211.13991 -0.016,219.9289 -0.40358,222.2832 -1.42398,8.6484 -4.78228,16.348 -9.96253,22.8412 -1.84724,2.3153 -6.20079,6.5782 -8.4639,8.2876 -6.17406,4.6633 -13.06468,7.627 -21.28125,9.1534 l -2.67409,0.4967 -219.27487,0.019 c -120.60117,0.01 -219.675982,-0.016 -220.16623,-0.059 z m 108.07756,-74.72385 c 22.14283,-1.57118 33.10125,-7.17196 39.45626,-20.16583 5.37116,-10.98219 7.5876,-26.14484 8.33904,-57.04712 0.20871,-8.58302 0.42537,-37.37626 0.28017,-37.2307 -0.0319,0.0319 -0.25672,2.15461 -0.49951,4.71692 -1.00092,10.56281 -2.34015,16.45041 -5.01343,22.04029 -8.28969,17.33393 -29.29913,25.09329 -64.86937,23.95809 -12.06138,-0.38493 -19.74078,-1.28286 -26.73565,-3.1261 -11.122901,-2.93105 -16.950116,-7.55906 -18.837395,-14.96079 -0.388099,-1.52207 -0.49426,-2.74943 -0.584228,-6.75423 -0.321454,-14.31041 1.890369,-19.7018 9.683006,-23.60268 7.699567,-3.85428 21.834757,-5.99592 46.524887,-7.04905 15.57113,-0.66417 23.184,-0.71471 133.14708,-0.88374 82.38245,-0.12658 114.3439,-0.24455 115.87697,-0.42747 6.80567,-0.81202 11.67837,-2.18566 17.07017,-4.81219 18.56577,-9.04405 30.39789,-30.26724 35.84504,-64.29492 2.84202,-17.75377 3.84443,-37.29972 3.61684,-70.52532 -0.12286,-17.94276 -0.25972,-22.50436 -0.94244,-31.42048 -2.85166,-37.24167 -13.22517,-60.39076 -32.10079,-71.63466 -7.33884,-4.37163 -15.82263,-6.76486 -26.09539,-7.36136 -4.92287,-0.28586 -112.72859,-0.28558 -123.52104,2.2e-4 -14.12512,0.37418 -20.6768,1.19437 -27.53424,3.44694 -15.22277,5.00048 -23.39232,16.85515 -28.40274,41.21473 -3.21055,15.60906 -5.07646,37.10069 -6.01836,69.31995 -0.21488,7.35012 -0.48389,45.138 -0.30381,42.67392 0.87977,-12.03747 2.83243,-22.48066 6.0208,-32.20042 7.75177,-23.63121 21.80958,-39.76785 41.30805,-47.41646 5.62449,-2.20629 10.76338,-3.47818 18.38431,-4.55011 3.7738,-0.53082 23.02484,-0.61604 44.67948,-0.19777 15.81414,0.30546 28.71129,0.46838 70.08329,0.88535 10.86175,0.10949 14.76583,0.50259 21.47385,2.16234 17.19566,4.25464 27.99309,15.00287 31.20894,31.06669 0.85972,4.2945 1.01284,6.2821 0.98708,12.81331 -0.0351,8.87279 -0.6822,14.50352 -2.33087,20.27847 -4.38325,15.3537 -15.17783,24.61365 -32.84326,28.17411 -6.70661,1.3517 -6.71939,1.35224 -32.86895,1.35224 -13.17543,0 -56.09448,-0.13831 -95.37565,-0.30735 -80.1766,-0.345 -88.02025,-0.28731 -103.50932,0.76141 -39.91932,2.70275 -62.53375,11.98591 -76.250745,31.30067 -12.307962,17.33072 -17.758428,44.42387 -17.147459,85.23642 0.245228,16.38107 0.999855,26.4666 2.709456,36.21155 5.024173,28.6388 18.745447,43.03466 45.229328,47.45299 2.62976,0.43873 8.30135,1.04304 11.36485,1.21093 2.66602,0.14618 14.98275,-0.0594 18.49575,-0.30879 z"
       id="path4147"
       inkscape:connector-curvature="0" />
  </g>
</svg>
