<?xml version="1.0" encoding="UTF-8" standalone="no"?>
<!-- Generator: Adobe Illustrator 18.0.0, SVG Export Plug-In . SVG Version: 6.00 Build 0)  -->

<svg
   xmlns:dc="http://purl.org/dc/elements/1.1/"
   xmlns:cc="http://creativecommons.org/ns#"
   xmlns:rdf="http://www.w3.org/1999/02/22-rdf-syntax-ns#"
   xmlns:svg="http://www.w3.org/2000/svg"
   xmlns="http://www.w3.org/2000/svg"
   xmlns:sodipodi="http://sodipodi.sourceforge.net/DTD/sodipodi-0.dtd"
   xmlns:inkscape="http://www.inkscape.org/namespaces/inkscape"
   version="1.1"
   id="Слой_1"
   x="0px"
   y="0px"
   viewBox="0 93 508.59668 379.49832"
   enable-background="new 0 93 850 1046"
   xml:space="preserve"
   inkscape:version="0.91 r13725"
   sodipodi:docname="los-angeles-california.svg"
   width="508.59668"
   height="379.49832"><metadata
     id="metadata9"><rdf:RDF><cc:Work
         rdf:about=""><dc:format>image/svg+xml</dc:format><dc:type
           rdf:resource="http://purl.org/dc/dcmitype/StillImage" /><dc:title /></cc:Work></rdf:RDF></metadata><defs
     id="defs7" /><sodipodi:namedview
     pagecolor="#ffffff"
     bordercolor="#666666"
     borderopacity="1"
     objecttolerance="10"
     gridtolerance="10"
     guidetolerance="10"
     inkscape:pageopacity="0"
     inkscape:pageshadow="2"
     inkscape:window-width="3840"
     inkscape:window-height="2076"
     id="namedview5"
     showgrid="false"
     inkscape:zoom="1.8049713"
     inkscape:cx="-213.97411"
     inkscape:cy="135.55641"
     inkscape:window-x="0"
     inkscape:window-y="38"
     inkscape:window-maximized="1"
     inkscape:current-layer="Слой_1"
     fit-margin-top="0"
     fit-margin-left="0"
     fit-margin-right="0"
     fit-margin-bottom="0" /><path
     d="m 119.74337,93 118.77344,9.6113 -5.06442,112.63699 167.08867,158.54941 c 0,0 0,6.13644 1.3308,7.726 1.3308,1.58956 4.54688,3.73362 5.32318,5.32318 0.81327,1.58956 0,5.87768 1.3308,7.46724 1.33079,1.58956 8.65016,5.32318 8.65016,5.32318 0,0 -2.51372,3.47485 -3.84452,4.80565 -1.33079,1.33079 -6.39521,3.99238 -7.46723,6.3952 -1.07204,2.40283 -1.3308,8.53927 -0.81327,10.9421 0.51753,2.40282 1.07203,6.13644 0,7.20846 -1.07203,1.07204 -3.21609,3.73363 -4.28811,4.54689 -1.07204,0.81326 -2.14406,0.81326 -1.8853,2.14406 0.25877,1.33079 2.6616,2.92035 2.6616,4.80565 0,1.88529 -1.58957,4.54687 -1.58957,6.9497 0,2.40282 1.3308,3.73362 3.73362,3.99239 2.40282,0.25876 5.87768,-0.51753 5.32318,1.88528 -0.51753,2.40283 -2.66159,8.02174 -4.54688,9.0568 -1.88529,1.07203 -4.28812,0 -4.28812,0 l -81.28938,10.12883 c 0,0 -1.07203,-6.35824 -2.40282,-8.24354 -1.33079,-1.88529 -2.14406,-3.47485 -1.8853,-5.32317 0.25877,-1.88529 -2.92035,-10.68333 -4.54688,-13.86245 -1.62652,-3.17912 -10.12882,-9.35253 -11.75535,-10.94209 -1.58956,-1.58956 -20.29462,-10.68332 -20.29462,-10.68332 0,0 -0.25876,-3.99239 -1.07203,-5.87768 -0.81326,-1.88529 -2.66159,-6.39521 -5.06441,-6.39521 -2.40283,0 -4.80565,2.40283 -4.80565,2.40283 0,0 -5.32318,-2.14406 -6.94971,-2.66159 -1.62653,-0.51753 -7.20847,-1.58957 -8.02174,-2.92036 -0.81325,-1.3308 -5.6189,-9.05679 -10.68332,-10.12883 -5.06441,-1.07202 -7.46723,-1.33079 -9.35253,-1.07202 -1.88529,0.25876 -3.73361,-0.51754 -5.87767,-1.58957 -2.14406,-1.07203 -9.35254,-1.33079 -12.01413,-0.81326 -2.66158,0.51753 -2.66158,0.51753 -2.66158,0.51753 l -5.32318,-7.726 2.14406,-2.92035 -2.40282,-3.2161 2.40282,-2.92035 -2.92036,-3.21609 2.92036,-2.66159 -1.88529,-4.28811 c 0,0 1.07202,-1.07203 0.81326,-2.40282 -0.25877,-1.3308 -2.92036,-2.14406 -3.99239,-1.8853 -1.07203,0.25877 -3.73361,-2.66159 -3.99238,-4.54688 -0.25876,-1.88529 2.14405,-1.33079 2.40282,-2.40283 0.25876,-1.07202 -1.88529,-4.28811 -3.73362,-4.80564 -1.88529,-0.51754 -2.92035,0.51753 -5.06441,-3.47486 -2.14406,-3.99238 -0.25877,-5.06441 -2.66159,-5.32318 -2.40282,-0.25876 -2.66158,-0.51753 -3.99239,-3.47485 -1.33079,-2.92035 -3.47485,-2.66159 -4.54688,-5.87767 -1.07202,-3.21609 2.14406,-2.66159 0.81327,-3.99238 -1.3308,-1.3308 -5.61891,-5.61892 -7.20848,-6.94971 -1.58955,-1.33079 -5.61891,-5.87768 -5.61891,-5.87768 l -0.81325,-12.27289 c 0,0 1.88529,1.07203 3.47485,-1.07203 1.58955,-2.14405 1.58955,-2.14405 1.58955,-2.14405 0,0 2.14406,-0.81326 1.3308,-2.92036 -0.81327,-2.10709 -3.21608,-3.99238 -3.21608,-3.99238 0,0 0.81326,-0.81326 -0.25877,-2.14406 -1.07203,-1.33079 -5.87768,-0.81326 -5.87768,-0.81326 l -9.61129,-9.3895 c 0,0 -0.81327,0.037 0,-4.36205 0.81325,-4.39902 2.92035,-4.95351 1.88529,-6.54308 -1.03506,-1.58955 -3.47486,-4.28811 -3.99239,-6.9497 -0.51753,-2.66159 -0.51753,-5.32318 1.3308,-5.06441 1.88529,0.25876 3.99238,5.06441 6.13644,6.13644 2.14406,1.07203 1.58956,1.07203 4.28812,2.92035 2.66159,1.8853 -0.81327,-0.51753 -2.66159,-4.54688 -1.8853,-3.99238 -3.21609,-5.61891 -2.40283,-8.02174 0.81327,-2.40282 1.8853,-3.21608 2.40283,-4.54687 0.51753,-1.3308 -0.25877,-2.92036 -2.14406,-1.58957 -1.8853,1.3308 -1.8853,2.66159 -2.40283,4.54689 -0.51753,1.88529 -1.33079,3.73361 -2.66159,3.73361 -1.33079,0 -5.0644,-4.28811 -6.9497,-5.06441 -1.88529,-0.81326 -3.21609,-4.28811 -4.80565,-4.28811 -1.58955,0 -3.47485,-0.51753 -3.47485,-0.51753 l 2.92036,-5.06442 c 0,0 -1.8853,-3.47485 -2.92036,-4.54688 -1.07203,-1.07203 -2.40282,-1.8853 -2.66159,-4.28812 -0.25876,-2.40282 -0.25876,-3.73362 -0.25876,-3.73362 0,0 -5.32319,-1.33079 -6.69095,-4.54688 -1.36776,-3.21609 -1.33079,-4.80564 -3.47485,-7.20847 -2.14406,-2.40282 -4.54688,-2.92035 -5.61891,-5.87767 -1.07203,-2.92036 1.07203,-7.46724 0,-10.12883 -1.07203,-2.6616 -2.66159,-3.21609 -2.40282,-6.69094 0.25876,-3.47486 3.73361,-7.46724 3.21608,-9.87007 -0.51753,-2.40282 -5.61891,-12.82738 -5.87767,-13.60368 -0.25877,-0.77629 0,-4.28811 0,-4.28811 0,0 -10.35063,-7.3933 -10.35063,-9.2786 0,-1.88529 1.07204,-2.92035 1.58957,-4.28812 0.51753,-1.33079 -1.58957,-2.66159 -1.58957,-2.66159 0,0 3.73362,-10.68332 5.06442,-11.75535 1.33079,-1.07202 2.92035,0.81326 3.73361,-1.07202 0.81327,-1.8853 0.81327,-1.8853 0.81327,-1.8853 l -1.3308,-0.51753 c 0,0 2.66159,-5.06441 3.21609,-6.69094 0.5545,-1.62653 -2.40282,-3.73362 -1.58956,-5.87768 0.81326,-2.14406 3.73361,-5.06441 4.54688,-9.61129 0.81326,-4.54688 -1.88529,-11.75536 -3.21609,-12.82738 -1.33079,-1.07204 -0.81326,-3.733635 -0.81326,-3.733635 L 119.74337,93 Z"
     id="path3"
     style="fill:#ffffff;fill-opacity:0.18466899"
     inkscape:connector-curvature="0" /><path
     style="fill:#ffffff;fill-opacity:1"
     d="M 5.0406781,353.54258 C 2.3056061,352.80458 0,349.86435 0,347.11445 0,337.8033 10.912785,331.17825 26.307688,331.14327 l 5.136834,-0.0117 2.992214,-8.23311 c 11.33371,-31.18486 15.449504,-42.91825 15.157225,-43.21053 -0.184367,-0.18435 -1.927858,0.006 -3.874427,0.42382 -6.109443,1.31025 -11.225462,-0.14448 -13.163374,-3.74297 -2.670558,-4.95892 0.379851,-13.94038 6.648957,-19.57685 6.017972,-5.41067 8.722612,-4.78867 6.931685,1.59414 -2.04425,7.28565 -1.265748,10.13686 3.047178,11.16006 2.839004,0.67353 4.824372,-0.46744 5.847562,-3.3605 2.846868,-8.04948 6.414144,-16.2952 8.865501,-20.49251 7.45074,-12.75741 23.260645,-24.11229 33.572657,-24.11229 8.09323,0 11.08799,5.33965 8.48127,15.12203 -1.25445,4.70759 -2.68042,7.26333 -7.533476,13.50198 -6.808329,8.7522 -15.906679,15.98081 -27.720039,22.02349 l -7.292343,3.73012 -5.242542,14.64882 c -8.697724,24.30338 -12.39976,33.92326 -14.458675,37.57147 l -1.959815,3.4726 5.17146,0.82811 c 9.293424,1.48818 24.150416,1.64942 31.53275,0.34223 7.754741,-1.37315 14.830737,-4.14124 18.931383,-7.40585 3.302937,-2.62954 3.968297,-2.81811 4.554387,-1.29077 0.69477,1.81051 -2.634036,7.79672 -6.405046,11.51828 -6.922171,6.83138 -16.100278,9.91947 -29.328106,9.86777 -8.072426,-0.0315 -9.545347,-0.24904 -19.359332,-2.8586 l -10.622153,-2.82445 -4.499881,4.06369 c -2.677441,2.41789 -6.773798,5.19078 -10.11451,6.84667 -4.744509,2.35169 -6.358944,2.81273 -10.417403,2.97491 -2.6415232,0.10555 -5.4076515,0.0286 -6.1469509,-0.17079 z m 13.8384819,-8.5465 c 2.893094,-1.03415 7.125348,-4.15675 8.098556,-5.97522 0.675033,-1.2613 0.47914,-1.30222 -5.131061,-1.07182 -5.417506,0.22248 -5.948397,0.37383 -7.454915,2.12525 -1.913334,2.22439 -2.082352,4.16422 -0.445865,5.11738 1.499891,0.8736 1.997305,0.85389 4.933285,-0.19559 z M 74.21691,263.2975 c 7.002926,-3.4091 12.673851,-8.05221 16.280106,-13.32945 3.286758,-4.80971 4.520374,-8.41721 4.569461,-13.36261 0.04373,-4.40699 -1.456647,-6.28739 -5.016736,-6.28739 -2.588214,0 -6.476539,2.16539 -8.832028,4.91851 -2.552566,2.98347 -5.977451,9.80542 -9.938746,19.79673 -2.238457,5.64592 -4.069923,10.40935 -4.069923,10.58542 0,0.78498 1.962363,0.13499 7.007866,-2.32121 z m 230.47874,84.64156 c -2.51146,-1.01343 -4.95126,-4.986 -5.7717,-9.39773 -2.59247,-13.94025 7.22042,-30.3968 24.33553,-40.81145 4.5319,-2.7577 4.86425,-3.28786 6.37615,-10.17154 l 0.48557,-2.2108 -3.59087,2.02423 c -4.72476,2.66342 -8.27682,3.20939 -11.66632,1.79317 -3.16477,-1.32232 -4.98408,-2.87516 -5.76692,-4.92223 -0.57257,-1.49718 -0.63063,-1.47692 -3.45136,1.20383 -11.42512,10.85821 -22.02356,11.41076 -22.02356,1.14821 0,-4.09976 3.06069,-13.35196 7.16302,-21.65314 3.8599,-7.81062 2.80454,-8.3071 -3.98999,-1.87699 -7.988,7.55959 -12.9813,14.70467 -15.66608,22.41711 -2.15726,6.19704 -5.31858,10.31609 -9.278,12.08877 -3.10696,1.39103 -5.11257,0.78477 -5.11257,-1.54543 0,-0.8001 0.89733,-3.88948 1.99405,-6.86529 1.09673,-2.9758 3.63601,-9.94716 5.64282,-15.4919 2.00683,-5.54475 3.88397,-10.66313 4.17144,-11.3742 0.41797,-1.03384 0.29733,-1.20636 -0.60213,-0.8612 -1.68146,0.64523 -3.14109,-0.16237 -3.14109,-1.73792 0,-2.23149 6.01352,-7.50838 10.44676,-9.16707 7.59466,-2.84153 9.06257,-1.13926 6.01028,6.9699 l -1.74817,4.64447 4.62079,-4.35902 c 2.54144,-2.39746 6.17835,-5.36828 8.08202,-6.60182 1.90367,-1.23353 3.273,-2.54734 3.04296,-2.91956 -0.23005,-0.37221 -0.10816,-0.4851 0.27084,-0.25087 0.37901,0.23424 2.50866,-0.2368 4.73258,-1.04675 3.37711,-1.22995 4.33288,-1.34078 5.7996,-0.6725 2.96157,1.34938 2.40792,5.115 -2.24648,15.27891 -6.38738,13.94829 -9.36346,22.73923 -7.98626,23.59039 0.88618,0.54769 4.99401,-2.29427 8.71102,-6.02663 2.28499,-2.29443 3.22054,-3.82983 3.53612,-5.80331 1.07617,-6.73006 6.47279,-15.43338 14.00516,-22.5866 13.67655,-12.98814 33.99187,-14.14303 32.60667,-1.85363 -0.5515,4.89289 -4.14693,8.7325 -8.99233,9.60307 -5.39834,0.9699 -8.22195,-1.41855 -4.3682,-3.69502 3.46795,-2.04857 4.16711,-5.54615 1.40424,-7.02479 -3.42502,-1.83302 -9.21023,0.38272 -13.97522,5.35251 -3.94143,4.11083 -6.51271,8.70153 -8.2224,14.67997 -2.11206,7.3855 -1.52053,12.23025 1.67083,13.68433 1.35675,0.61817 2.05152,0.49751 3.973,-0.69004 3.03794,-1.87753 6.48778,-6.13912 9.03845,-11.16516 2.35975,-4.64983 4.83331,-7.22469 8.35276,-8.69485 4.70253,-1.96436 5.78821,0.44795 3.22937,7.17543 -1.65138,4.34168 -6.88854,22.08241 -6.5961,22.34406 0.11654,0.10425 2.02653,-0.12006 4.24443,-0.49847 2.42625,-0.41396 16.79064,-0.64787 36.06156,-0.58722 18.64248,0.0587 34.09201,-0.18491 36.96497,-0.58281 6.58919,-0.91259 12.29951,-3.85362 17.19525,-8.85621 6.09561,-6.22864 8.72853,-4.47169 5.17269,3.45175 -3.16611,7.05507 -9.71281,11.92058 -19.44826,14.454 -10.14851,2.6409 -22.74227,2.6269 -48.72655,-0.0541 -11.16172,-1.15167 -32.37245,-1.09333 -33.54746,0.0923 -0.35762,0.36084 -1.88448,5.64635 -3.39301,11.74557 -4.30333,17.39894 -4.75653,18.82183 -7.8329,24.5925 -5.54513,10.40155 -15.37151,16.47608 -22.197,13.72185 z m 10.91872,-8.37821 c 1.4172,-1.41722 2.59707,-5.12372 5.30771,-16.67403 1.32142,-5.63073 2.81805,-11.97734 3.32583,-14.10356 l 0.92324,-3.86587 -1.76684,1.38981 c -5.35921,4.21555 -11.02536,13.41048 -12.93344,20.98813 -0.95245,3.78254 -0.57821,10.68882 0.66007,12.18085 1.10533,1.33184 3.19675,1.37133 4.48343,0.0847 z M 69.225314,322.54168 c -7.439012,-4.07656 -7.66808,-17.00977 -0.511904,-28.90252 1.20567,-2.00369 4.035359,-5.60508 6.288192,-8.0031 3.191758,-3.39743 4.451477,-4.30958 5.705907,-4.13156 2.45473,0.34836 2.287742,2.02775 -0.654226,6.57954 -4.481889,6.93436 -6.341489,15.0312 -4.792879,20.86858 1.861429,7.01656 7.18509,8.79526 13.010717,4.34707 1.709912,-1.30562 3.408157,-2.93297 3.773888,-3.61634 0.558232,-1.04307 0.371397,-1.30148 -1.164034,-1.61003 -1.005945,-0.20214 -2.880337,-1.07712 -4.165314,-1.9444 -4.913069,-3.31601 -6.757748,-8.6302 -5.331229,-15.35829 2.015948,-9.50806 7.882988,-15.37767 15.396589,-15.40334 8.302419,-0.0283 12.989649,9.81123 9.769969,20.50942 -0.54093,1.79733 -0.87267,3.3787 -0.73722,3.51415 0.98312,0.98312 11.85542,-6.98202 14.80009,-10.84266 l 1.78691,-2.34278 -1.38433,-2.71352 c -3.0404,-5.95968 -1.056,-12.96081 5.48112,-19.33777 4.44438,-4.33549 8.08353,-6.28037 11.75146,-6.28037 3.50141,0 4.58925,1.54205 3.94224,5.58824 -0.43506,2.72078 -3.76519,9.66215 -6.66741,13.89766 l -1.54037,2.24801 3.48297,4.62986 c 3.1256,4.15483 3.99419,5.94957 5.37454,11.10526 0.34335,1.28245 0.86155,1.51221 3.41076,1.51221 3.47656,0 7.66795,1.91532 9.15376,4.18295 1.42949,2.18168 1.05336,5.8017 -1.0494,10.09957 -2.74157,5.60357 -6.89936,6.80608 -5.14417,1.4878 1.1214,-3.39788 -0.70598,-6.36392 -4.70884,-7.64296 -2.7573,-0.88104 -3.00851,-0.85801 -3.66619,0.33605 -0.38832,0.70504 -2.36947,2.97919 -4.40254,5.05366 -4.33909,4.42744 -9.36267,6.6396 -16.13018,7.10302 -10.68485,0.73167 -12.70707,-6.35556 -3.60108,-12.62066 3.19901,-2.20097 11.65472,-5.98316 13.37637,-5.98316 2.43512,0 1.50895,-2.83703 -2.24375,-6.87303 l -1.70373,-1.83234 -5.77029,5.9139 c -6.69413,6.86075 -10.93767,9.80949 -16.40426,11.39899 -3.13402,0.91126 -4.394876,1.72377 -6.333123,4.08116 -2.866943,3.48692 -9.16705,8.25883 -13.523211,10.24293 -4.509882,2.05413 -11.81363,2.41686 -14.875802,0.7388 z m 56.175526,-11.09254 c 3.24394,-1.89124 6.32889,-5.1671 6.32889,-6.72054 0,-0.53186 -6.48668,0.74767 -8.89792,1.75514 -4.33754,1.81234 -4.99392,5.85119 -0.94351,5.80552 1.16181,-0.0132 2.74245,-0.39115 3.51254,-0.84012 z M 97.029498,298.03115 c 0.629021,-2.34718 0.488839,-7.29914 -0.285564,-10.08771 -1.953288,-7.03353 -9.372178,-4.76742 -9.372178,2.86274 0,3.66811 1.445888,5.94113 4.844784,7.61629 3.034413,1.49553 4.335659,1.38973 4.812958,-0.39132 z m 35.073262,-27.07079 c 2.0864,-4.71773 2.15623,-6.01545 0.26933,-5.00561 -1.93426,1.03518 -3.60873,4.83376 -3.07253,6.97012 0.24173,0.96313 0.60161,1.75114 0.79973,1.75114 0.19813,0 1.09968,-1.67205 2.00347,-3.71565 z m 115.95633,38.84768 c -1.8966,-0.35737 -6.57893,-3.16593 -8.33864,-5.00169 -0.67318,-0.70229 -2.02105,-3.00548 -2.99526,-5.11819 -2.81765,-6.11054 -2.48924,-11.10348 1.44625,-21.98775 1.73754,-4.80543 3.46164,-9.45674 3.83135,-10.33623 0.3697,-0.87947 0.58139,-1.68984 0.47043,-1.80081 -0.2203,-0.22031 -15.50781,1.85491 -26.73218,3.62879 l -7.05696,1.11526 -5.42457,15.18555 c -2.9835,8.35206 -6.10329,16.13875 -6.93284,17.30375 -2.23206,3.13463 -6.83975,5.6152 -9.95351,5.35852 -1.71217,-0.14115 -2.56689,-0.54369 -2.58811,-1.21889 -0.0391,-1.24688 8.62733,-26.78471 11.47027,-33.7997 0.44901,-1.10795 0.14283,-1.16798 -3.86328,-0.75754 -4.0131,0.41116 -4.37889,0.33886 -4.71099,-0.9311 -0.74159,-2.83585 4.18319,-6.20008 10.21293,-6.97667 1.41627,-0.18241 1.9986,-1.12897 4.08561,-6.64119 5.54465,-14.6445 14.01109,-27.56892 25.60161,-39.08207 5.20258,-5.16785 7.65048,-8.04398 7.12351,-8.36965 -1.81181,-1.11977 -12.34598,-1.06062 -16.30935,0.0915 -18.25958,5.3082 -32.53664,21.28095 -32.56321,36.43072 -0.009,5.20355 1.98115,8.0494 6.08879,8.70623 3.63029,0.58051 5.20334,1.83291 4.27503,3.40361 -1.91156,3.23431 -11.02853,5.23624 -16.14954,3.54616 -11.19967,-3.69622 -11.09758,-21.26473 0.20475,-35.23963 13.64438,-16.87075 40.77155,-27.30351 59.59885,-22.92097 4.58709,1.06777 4.65008,1.06332 7.39299,-0.52114 3.6754,-2.12311 10.9036,-4.89043 13.96617,-5.34693 3.14705,-0.46909 5.27334,0.88389 4.21606,2.68273 -0.39293,0.66854 -3.40731,2.62201 -6.69861,4.34108 -3.2913,1.71905 -6.0923,3.44992 -6.22446,3.84638 -0.13215,0.39646 0.87271,1.86315 2.23303,3.2593 5.72981,5.88079 8.96879,16.42359 8.09624,26.35299 -0.81999,9.3312 -3.35227,17.95969 -12.34086,42.05035 -2.2494,6.0287 -2.84687,10.49279 -2.02209,15.10848 0.80685,4.51531 1.99729,6.90448 4.59245,9.21677 3.91419,3.48756 2.03856,5.56006 -4.00186,4.42191 z m -28.28551,-48.51906 c 2.77237,-0.39791 8.36752,-1.20575 12.43367,-1.7952 4.06615,-0.58946 8.62986,-1.22897 10.14158,-1.42114 2.34136,-0.29764 2.85869,-0.66186 3.49182,-2.45844 1.61765,-4.59024 3.10511,-13.82604 3.09986,-19.24734 -0.005,-5.7562 -1.83158,-14.1139 -3.08364,-14.1139 -0.34275,0 -0.46443,-0.25689 -0.27039,-0.57084 0.19404,-0.31397 -0.57236,-1.82888 -1.70313,-3.36648 l -2.05593,-2.79564 -3.4659,3.11193 c -10.54396,9.4671 -19.17784,22.87167 -24.56624,38.1404 -2.10106,5.95357 -2.10125,5.95542 -0.58207,5.59782 0.83583,-0.19674 3.78799,-0.68326 6.56037,-1.08117 z m 140.13086,20.3952 c -8.65063,-4.49911 -9.96975,-13.70724 -3.7961,-26.49879 3.27021,-6.77572 10.68169,-14.3479 17.11334,-17.4844 3.64632,-1.77818 5.64686,-2.29531 9.81261,-2.53645 5.00951,-0.29 5.32455,-0.2207 7.39103,1.62586 1.57377,1.40629 2.26247,2.70418 2.54233,4.79118 0.81583,6.08369 -6.8565,16.68342 -17.74381,24.514 -6.04511,4.34789 -8.46926,5.08362 -8.81432,2.67513 -0.16543,-1.15478 1.13608,-2.96948 5.23657,-7.30136 6.16567,-6.51361 9.19362,-11.31113 9.83392,-15.58096 1.19719,-7.98338 -7.29862,-5.13597 -12.82812,4.29941 -5.56953,9.50369 -6.20936,19.62116 -1.42533,22.53839 5.54518,3.38137 15.21324,0.23363 23.42264,-7.62596 l 4.38911,-4.20207 0.45174,-5.37673 c 1.37011,-16.30706 7.45207,-36.24931 16.58256,-54.37284 7.65538,-15.19549 16.37364,-26.61405 20.32027,-26.61405 2.62742,0 3.41016,1.64824 3.3041,6.95747 -0.3078,15.40851 -11.87912,47.20955 -25.34308,69.64943 -3.94778,6.57962 -4.41338,8.64665 -3.05185,13.54849 1.44045,5.18591 4.15888,4.91849 9.87795,-0.97169 2.9813,-3.07051 3.44601,-3.93634 3.84878,-7.17083 1.07784,-8.65598 7.43182,-19.28711 14.78374,-24.73541 4.63703,-3.43638 6.8193,-4.4672 12.58301,-5.9438 4.8629,-1.24582 7.84397,-0.82602 10.5996,1.49269 4.1698,3.50866 3.21995,9.25432 -2.86683,17.34133 -5.31787,7.06544 -16.93697,16.18744 -20.05594,15.74565 -2.54039,-0.35983 -1.57564,-2.33411 4.1104,-8.41148 5.94864,-6.35805 9.46732,-12.34203 9.65485,-16.41935 0.35464,-7.71077 -8.57161,-3.26342 -13.65273,6.80222 -5.09816,10.0994 -4.74733,19.25776 0.82612,21.56636 4.70395,1.94843 13.73871,-1.10988 20.32824,-6.8812 4.32634,-3.78915 6.30727,-6.03291 12.56858,-14.23606 l 5.15722,-6.75674 -1.2927,-2.53397 c -3.85228,-7.551 1.56349,-18.35847 11.75231,-23.45273 4.59374,-2.29678 6.46793,-2.47359 8.0216,-0.75678 2.31764,2.56092 0.64844,8.02105 -4.99033,16.32457 -1.86741,2.74988 -2.62485,4.44114 -2.22785,4.97471 0.3308,0.44461 2.04967,2.58937 3.81975,4.76611 2.10923,2.59377 3.58769,5.26382 4.29002,7.74753 l 1.07165,3.7898 3.43096,0.45513 c 7.23122,0.95925 10.34092,4.03953 9.53092,9.44086 -0.57095,3.80712 -3.92898,9.07199 -5.7863,9.07199 -1.24827,0 -1.35413,-0.25385 -0.91103,-2.1843 1.08268,-4.71678 0.23127,-6.66462 -3.61557,-8.27194 -3.54688,-1.48197 -4.31986,-1.19676 -6.86036,2.53116 -4.42074,6.48711 -12.4492,10.33232 -20.50232,9.81954 -5.14084,-0.32734 -7.05339,-1.68302 -7.05339,-4.99965 0,-1.5276 0.65026,-2.96537 2.07512,-4.5882 2.20697,-2.51359 10.27434,-6.89782 15.56725,-8.46006 1.75584,-0.51824 3.19244,-1.16735 3.19244,-1.44245 0,-0.72891 -5.5924,-7.46512 -6.38487,-7.69074 -0.36964,-0.10524 -2.63351,2.44117 -5.03079,5.65871 -7.10104,9.53059 -10.15096,12.91791 -15.38727,17.08949 -13.45091,10.71584 -27.12514,12.93168 -33.68648,5.45872 l -2.05793,-2.34385 -3.77977,3.4545 c -8.36045,7.64098 -15.16228,9.517 -19.12503,5.27487 -1.08907,-1.16586 -2.32509,-3.40952 -2.74671,-4.98591 l -0.76658,-2.86619 -4.1737,3.80977 c -8.04733,7.34561 -17.14637,11.54187 -25.01134,11.53465 -2.76567,-0.003 -5.28478,-0.40916 -6.5223,-1.05278 z m 117.62159,-19.68714 c 2.60745,-1.18455 7.05118,-5.50011 7.05118,-6.84784 0,-1.18068 -9.67629,1.51145 -11.59356,3.22554 -1.3663,1.22152 -1.52048,2.91843 -0.36966,4.06923 1.06553,1.06554 1.71222,1.00671 4.91204,-0.44693 z m -66.35307,-23.61391 c 6.89546,-16.16297 14.48987,-43.97809 12.36581,-45.29083 -3.03331,-1.87469 -13.72767,31.56001 -16.51033,51.61768 -0.53582,3.86216 0.42043,2.40239 4.14452,-6.32685 z m 73.74378,-17.48168 c 2.39365,-5.00813 1.64596,-6.57942 -1.59063,-3.34279 -2.02663,2.02664 -2.57176,4.05141 -1.7014,6.31955 0.68164,1.77639 1.27798,1.23718 3.29203,-2.97676 z"
     id="path4735"
     inkscape:connector-curvature="0" /><flowRoot
     xml:space="preserve"
     id="flowRoot4752"
     style="font-style:normal;font-weight:normal;font-size:40px;line-height:125%;font-family:sans-serif;letter-spacing:0px;word-spacing:0px;fill:#000000;fill-opacity:1;stroke:none;stroke-width:1px;stroke-linecap:butt;stroke-linejoin:miter;stroke-opacity:1"
     transform="translate(-1.6646762,-513.77966)"><flowRegion
       id="flowRegion4754"><rect
         id="rect4756"
         width="181.72034"
         height="232.69067"
         x="527.43219"
         y="106.37288" /></flowRegion><flowPara
       id="flowPara4758" /></flowRoot><path
     id="path4773"
     d="m 267.99279,434.04244 17.02104,-52.44319 17.02103,52.44319 -44.62271,-32.43197 55.20335,0"
     inkscape:connector-curvature="0"
     style="fill:#7d8cff;fill-opacity:1" /></svg>