<?xml version="1.0" encoding="UTF-8" standalone="no"?>
<!-- Created with Inkscape (http://www.inkscape.org/) -->

<svg
   xmlns:dc="http://purl.org/dc/elements/1.1/"
   xmlns:cc="http://creativecommons.org/ns#"
   xmlns:rdf="http://www.w3.org/1999/02/22-rdf-syntax-ns#"
   xmlns:svg="http://www.w3.org/2000/svg"
   xmlns="http://www.w3.org/2000/svg"
   xmlns:sodipodi="http://sodipodi.sourceforge.net/DTD/sodipodi-0.dtd"
   xmlns:inkscape="http://www.inkscape.org/namespaces/inkscape"
   width="70.518967mm"
   height="70.507355mm"
   viewBox="0 0 249.87036 249.82921"
   id="svg2"
   version="1.1"
   inkscape:version="0.91 r13725"
   sodipodi:docname="xj-logo.svg"
   inkscape:export-filename="/home/charney/xj/site/xj/design/xj-logo.png"
   inkscape:export-xdpi="600"
   inkscape:export-ydpi="600">
  <defs
     id="defs4" />
  <sodipodi:namedview
     id="base"
     pagecolor="#ffffff"
     bordercolor="#666666"
     borderopacity="1.0"
     inkscape:pageopacity="0.0"
     inkscape:pageshadow="2"
     inkscape:zoom="1.979899"
     inkscape:cx="378.25466"
     inkscape:cy="-78.79702"
     inkscape:document-units="px"
     inkscape:current-layer="layer1"
     showgrid="false"
     showguides="true"
     inkscape:guide-bbox="true"
     inkscape:window-width="3840"
     inkscape:window-height="2076"
     inkscape:window-x="0"
     inkscape:window-y="38"
     inkscape:window-maximized="1"
     fit-margin-top="0"
     fit-margin-left="0"
     fit-margin-right="0"
     fit-margin-bottom="0">
    <sodipodi:guide
       position="201.04345,-21.360861"
       orientation="1,0"
       id="guide4189" />
    <sodipodi:guide
       position="249.78331,129.40441"
       orientation="1,0"
       id="guide4191" />
    <sodipodi:guide
       position="286.40134,113.24197"
       orientation="0,1"
       id="guide4193" />
    <sodipodi:guide
       position="337.41404,42.531288"
       orientation="0,1"
       id="guide4195" />
    <sodipodi:guide
       position="77.520547,165.20694"
       orientation="0,1"
       id="guide4199" />
    <sodipodi:guide
       position="81.449117,59.492645"
       orientation="1,0"
       id="guide4201" />
    <sodipodi:guide
       position="135.9134,157.70694"
       orientation="1,0"
       id="guide4203" />
  </sodipodi:namedview>
  <metadata
     id="metadata7">
    <rdf:RDF>
      <cc:Work
         rdf:about="">
        <dc:format>image/svg+xml</dc:format>
        <dc:type
           rdf:resource="http://purl.org/dc/dcmitype/StillImage" />
        <dc:title></dc:title>
      </cc:Work>
    </rdf:RDF>
  </metadata>
  <g
     inkscape:label="Layer 1"
     inkscape:groupmode="layer"
     id="layer1"
     transform="translate(-49.979456,-752.38278)">
    <path
       style="fill:#000000;fill-opacity:1"
       d="m 257.71453,920.99189 -122.83176,0.0456 c -78.342743,0.0291 -78.522453,3.57977 -78.664793,21.18282 -0.0676,8.36298 2.85514,16.98087 36.08256,16.91069 42.457653,-0.0897 41.078953,-22.00075 42.473533,-35.0405 -0.0149,66.65111 -1.28987,77.9252 -41.364533,78.1215 -38.68659,-0.3813 -43.43857,-23.8438 -43.43007,-61.31752 0.0149,-64.26811 23.48426,-74.978 85.019383,-74.97855 40.60516,-3.6e-4 122.47779,0.49003 122.47779,0.49003 34.76832,-0.0868 35.05726,-23.4734 35.14147,-34.50942 0.0656,-8.59633 -2.10171,-30.14106 -35.14026,-30.22688 -41.78811,-0.0824 -53.75492,-0.8847 -71.20216,-0.80676 -44.7609,0.19996 -51.6534,43.90304 -51.47399,62.7838 -0.17941,-111.19743 9.0557,-111.19743 51.73982,-111.25609 43.9159,-0.003 56.11458,-0.0171 70.73622,0.002 42.55708,0.0564 42.50998,48.79652 42.56798,76.6485 0.07,33.71439 -0.2804,91.74236 -42.13119,91.95078 z"
       id="path4158"
       inkscape:connector-curvature="0"
       sodipodi:nodetypes="csssccsssscsccssc" />
  </g>
</svg>
