<?xml version="1.0" encoding="UTF-8"?>
<svg id="XJ_music" data-name="XJ music" xmlns="http://www.w3.org/2000/svg" xmlns:xlink="http://www.w3.org/1999/xlink" viewBox="0 0 432 432">
  <defs>
    <style>
      .cls-1 {
        fill: none;
      }

      .cls-2 {
        clip-path: url(#clippath);
      }

      .cls-3 {
        fill: #fff;
      }
    </style>
    <clipPath id="clippath">
      <rect class="cls-1" x="36" y="36" width="360" height="360"/>
    </clipPath>
  </defs>
  <rect width="432" height="432" rx="35.91" ry="35.91"/>
  <g class="cls-2">
    <path class="cls-3" d="m335.14,278.8l-176.88.06c-112.81.04-113.07,5.16-113.27,30.51-.1,12.04,4.11,24.45,51.95,24.35,61.14-.13,59.16-31.68,61.17-50.46-.02,95.98-1.86,112.21-59.57,112.49-55.71-.55-62.55-34.33-62.54-88.3.02-92.55,33.82-107.97,122.43-107.97,58.47,0,176.36.7,176.36.7,50.07-.13,50.48-33.8,50.6-49.7.1-12.37-3.02-43.4-50.6-43.52-60.18-.12-77.41-1.27-102.54-1.16-64.45.29-74.38,63.22-74.12,90.41-.26-160.12,13.04-160.12,74.5-160.21,63.24,0,80.8-.03,101.86,0,61.28.08,61.21,70.27,61.3,110.38.1,48.54-.41,132.1-60.67,132.41h0Zm0,0"/>
  </g>
</svg>