<?xml version="1.0" standalone="no"?>
<!DOCTYPE svg PUBLIC "-//W3C//DTD SVG 20010904//EN"
 "http://www.w3.org/TR/2001/REC-SVG-20010904/DTD/svg10.dtd">
<svg version="1.0" xmlns="http://www.w3.org/2000/svg"
 width="16.000000pt" height="16.000000pt" viewBox="0 0 16.000000 16.000000"
 preserveAspectRatio="xMidYMid meet">
<metadata>
Created by potrace 1.11, written by Peter Selinger 2001-2013
</metadata>
<g transform="translate(0.000000,16.000000) scale(0.002000,-0.002000)"
fill="#000000" stroke="none">
<path d="M5579 7030 c-1 -19 -1 -883 0 -892 1 -5 406 -8 901 -8 l900 0 -2 457
-3 458 -897 0 c-792 0 -898 -2 -899 -15z"/>
<path d="M222 5699 c2 -4 49 -65 105 -136 55 -70 196 -249 313 -398 116 -148
219 -279 228 -290 10 -11 39 -49 66 -85 27 -36 56 -72 63 -80 8 -8 52 -64 99
-125 48 -60 122 -155 165 -210 43 -55 151 -192 240 -305 88 -113 168 -214 177
-225 10 -11 27 -33 39 -49 l23 -28 -29 -37 c-16 -20 -49 -57 -73 -82 -23 -26
-70 -77 -103 -115 -33 -37 -69 -78 -80 -90 -18 -20 -96 -108 -142 -160 -20
-23 -146 -164 -178 -200 -11 -12 -47 -53 -80 -90 -33 -37 -69 -78 -80 -90 -11
-12 -33 -37 -50 -55 -42 -48 -188 -212 -200 -225 -29 -32 -126 -142 -142 -160
-10 -12 -38 -44 -63 -71 -25 -27 -70 -78 -100 -113 -30 -35 -64 -72 -74 -82
-19 -17 -4 -18 501 -18 l521 0 25 32 c14 18 42 52 64 74 21 23 65 73 98 110
33 38 75 86 93 106 115 128 122 136 207 232 33 37 69 78 80 90 11 13 52 58 90
102 39 43 86 97 106 119 20 22 48 55 64 73 16 17 32 32 36 32 4 0 15 -13 26
-29 20 -32 163 -223 172 -231 4 -3 35 -43 69 -90 35 -47 69 -92 75 -100 10
-12 117 -152 149 -195 4 -5 21 -26 38 -46 16 -20 30 -40 30 -43 0 -4 9 -17 21
-29 11 -12 41 -51 67 -87 25 -36 58 -77 72 -93 l25 -27 1028 2 1029 3 -92 115
c-50 63 -99 124 -108 135 -9 11 -33 40 -52 65 -19 25 -37 47 -40 50 -3 3 -30
37 -60 75 -30 39 -57 72 -60 75 -3 3 -30 37 -60 75 -30 39 -57 72 -60 75 -3 3
-17 21 -31 40 -15 19 -43 53 -62 75 -20 22 -37 45 -37 52 0 6 -4 13 -9 15 -4
2 -130 156 -279 343 -149 187 -275 345 -279 350 -5 6 -37 46 -72 90 -35 44
-67 82 -72 83 -5 2 -9 8 -9 13 0 5 -11 22 -24 37 -13 15 -69 83 -124 152 -73
91 -97 129 -91 140 4 8 27 36 51 61 70 75 183 201 213 237 16 19 40 46 54 60
14 15 64 70 111 122 47 52 98 108 113 124 16 17 52 58 80 90 29 33 70 78 92
102 22 23 67 73 100 110 33 37 69 78 80 90 11 12 49 55 85 95 57 64 88 98 193
213 81 89 130 145 131 152 0 5 -234 9 -522 9 l-523 1 -63 -71 c-35 -38 -85
-95 -112 -126 -27 -30 -80 -90 -119 -134 -74 -83 -78 -87 -158 -180 -29 -32
-64 -72 -78 -87 -27 -29 -112 -124 -165 -186 -81 -94 -82 -94 -93 -80 -26 32
-64 83 -166 223 -61 83 -113 152 -117 153 -5 2 -8 10 -8 18 0 8 -3 14 -7 14
-5 1 -24 24 -43 52 -19 28 -47 65 -62 83 -16 18 -28 37 -28 43 0 6 -3 12 -8
14 -9 4 -152 195 -152 203 0 3 -11 18 -25 33 l-25 27 -1010 0 c-556 0 -1009
-3 -1008 -6z"/>
<path d="M5609 5700 c0 -3 -2 -903 -3 -2000 -2 -1871 -3 -1998 -19 -2036 -31
-71 -55 -77 -317 -80 -124 -2 -232 -3 -240 -3 -13 -1 -15 -30 -14 -208 1 -115
2 -210 3 -213 1 -3 425 -5 944 -4 928 1 943 1 1021 22 127 35 222 101 282 194
33 52 71 170 79 248 5 46 10 3871 5 4065 0 21 -2 21 -870 21 -478 0 -870 -3
-871 -6z"/>
</g>
</svg>
