<?xml version="1.0" standalone="no"?>
<!DOCTYPE svg PUBLIC "-//W3C//DTD SVG 20010904//EN"
  "http://www.w3.org/TR/2001/REC-SVG-20010904/DTD/svg10.dtd">
<svg version="1.0" xmlns="http://www.w3.org/2000/svg"
     width="1999.000000pt" height="1999.000000pt" viewBox="0 0 1999.000000 1999.000000"
     preserveAspectRatio="xMidYMid meet">
  <metadata>
    Created by potrace 1.11, written by Peter Selinger 2001-2013
  </metadata>
  <g transform="translate(0.000000,1999.000000) scale(0.100000,-0.100000)"
     fill="#000000" stroke="none">
    <path d="M10045 18323 c-905 -21 -1401 -163 -1758 -502 -499 -475 -758 -1405
-882 -3161 -52 -745 -86 -1917 -83 -2870 1 -283 3 -499 5 -480 1 19 8 94 14
165 54 657 239 1346 500 1868 218 434 521 820 859 1091 355 286 801 490 1280
586 441 89 672 93 2780 50 250 -6 1013 -14 1695 -20 682 -5 1301 -15 1375 -20
997 -79 1638 -493 1888 -1222 92 -265 117 -442 116 -818 -1 -386 -25 -623 -89
-871 -198 -771 -751 -1220 -1665 -1353 -274 -39 -293 -40 -3170 -26 -3726 18
-6267 19 -6600 2 -318 -16 -638 -38 -840 -57 -1778 -176 -2743 -700 -3275
-1780 -212 -431 -345 -893 -434 -1510 -105 -722 -132 -1879 -66 -2790 82
-1122 324 -1813 797 -2271 377 -365 880 -567 1590 -639 438 -44 1128 -22 1559
50 979 164 1383 642 1553 1835 43 301 76 715 96 1230 11 255 23 2022 14 1950
-3 -19 -14 -125 -25 -235 -50 -510 -139 -809 -321 -1086 -304 -463 -869 -746
-1688 -848 -294 -37 -455 -45 -850 -44 -977 1 -1608 113 -1971 349 -95 61
-213 181 -262 264 -42 72 -81 187 -97 282 -13 83 -13 502 1 626 24 228 79 369
188 484 305 324 980 446 2826 509 149 5 2432 13 5075 18 5533 12 5576 12 5715
35 537 89 957 312 1297 690 630 700 979 1849 1087 3581 31 482 36 738 36 1710
0 1013 -5 1227 -41 1685 -102 1328 -414 2243 -964 2833 -291 311 -704 544
-1142 641 -153 34 -281 53 -448 66 -117 9 -5311 12 -5675 3z"/>
  </g>
</svg>
